<?xml version="1.0" standalone="no"?>
<!DOCTYPE svg PUBLIC "-//W3C//DTD SVG 1.1//EN" "http://www.w3.org/Graphics/SVG/1.1/DTD/svg11.dtd" >
<!--
2013-9-30: Created.
-->
<svg>
<metadata>
Created by iconfont
</metadata>
<defs>

<font id="iconfont" horiz-adv-x="1024" >
  <font-face
    font-family="iconfont"
    font-weight="500"
    font-stretch="normal"
    units-per-em="1024"
    ascent="896"
    descent="-128"
  />
    <missing-glyph />
    
    <glyph glyph-name="x" unicode="x" horiz-adv-x="1001"
d="M281 543q-27 -1 -53 -1h-83q-18 0 -36.5 -6t-32.5 -18.5t-23 -32t-9 -45.5v-76h912v41q0 16 -0.5 30t-0.5 18q0 13 -5 29t-17 29.5t-31.5 22.5t-49.5 9h-133v-97h-438v97zM955 310v-52q0 -23 0.5 -52t0.5 -58t-10.5 -47.5t-26 -30t-33 -16t-31.5 -4.5q-14 -1 -29.5 -0.5
t-29.5 0.5h-32l-45 128h-439l-44 -128h-29h-34q-20 0 -45 1q-25 0 -41 9.5t-25.5 23t-13.5 29.5t-4 30v167h911zM163 247q-12 0 -21 -8.5t-9 -21.5t9 -21.5t21 -8.5q13 0 22 8.5t9 21.5t-9 21.5t-22 8.5zM316 123q-8 -26 -14 -48q-5 -19 -10.5 -37t-7.5 -25t-3 -15t1 -14.5
t9.5 -10.5t21.5 -4h37h67h81h80h64h36q23 0 34 12t2 38q-5 13 -9.5 30.5t-9.5 34.5q-5 19 -11 39h-368zM336 498v228q0 11 2.5 23t10 21.5t20.5 15.5t34 6h188q31 0 51.5 -14.5t20.5 -52.5v-227h-327z" />
    

    
    <glyph glyph-name="google" unicode="&#58905;" d="M446.0539 800C199.7003 800 0 600.2997 0 353.9461 0 107.6923 199.7003-92.008 446.0539-92.008c246.3536 0 446.0539 199.7003 446.0539 445.954C892.008 600.2997 692.3077 800 446.0539 800zM675.025 248.6513v-112.88711288711289h-0.0999000999000999l0.0999-10.1898c-109.4905-55.2448-291.3087-71.029-396.1039-0.2997-63.5365 42.8571-126.0739 127.972-122.6773 235.7642 3.2967 102.2977 69.6304 193.9061 160.8392 240.0599 104.8951 53.047 263.2368 43.0569 355.5445-33.3666l-54.3457-55.4446-35.2647-9.99 18.7812 34.0659c-26.8731 27.0729-57.7423 46.6533-91.8082 57.6424-54.2458 17.3826-104.2957 7.7922-145.954-12.6873C278.4216 539.2607 227.8721 437.962 247.4525 330.8691c20.6793-112.8871 107.992-203.4965 222.5774-212.987 33.7662-2.8971 70.7293-1.1988 103.3966 7.4925 23.2767 7.4925 23.0769 9.7902 23.0769 23.8761v99.5004995004995l-114.7852-3.3966 59.1409 33.2667h159.54045954045952L675.025 248.6513z"  horiz-adv-x="1000" />

    
    <glyph glyph-name="mima" unicode="&#58880;" d="M827.466752-153.399552 190.548992-153.399552c-29.314048 0-53.076992 23.773184-53.076992 53.097472L137.472 324.31488c0 29.282304 23.76192 53.060608 53.076992 53.060608l53.070848 0L243.61984 483.518208c0 146.576384 118.821888 265.376768 265.388032 265.376768S774.38976 630.093568 774.38976 483.518208l0-106.14272 53.076992 0c29.308928 0 53.070848-23.778304 53.070848-53.060608l0-424.61696C880.5376-129.627392 856.77568-153.399552 827.466752-153.399552zM668.2368 483.518208c0 87.947264-71.286784 159.235072-159.228928 159.235072S349.7728 571.465472 349.7728 483.518208l0-106.14272 318.464 0L668.2368 483.518208z"  horiz-adv-x="1024" />

    
    <glyph glyph-name="zhifeiji" unicode="&#58900;" d="M951.975936 704.146176c-2.75968 2.184192-6.536192 2.57024-9.614336 0.944128L74.161152 261.116672c-3.231744-1.659904-5.136384-5.085184-4.855808-8.702976 0.318464-3.615744 2.761728-6.690816 6.221824-7.794688l290.622464-92.377088c3.057664-0.959488 6.360064-0.242688 8.704 1.88928L776.901632 516.368128 455.88992 136.392448c-1.941504-2.28864-2.604032-5.41696-1.747968-8.29952 0.854016-2.884608 3.09248-5.157888 5.971968-6.030336l322.486272-98.23232c0.833536-0.263168 1.714176-0.384 2.5856-0.384 1.533952 0 3.072 0.402432 4.438016 1.17248 2.12992 1.220608 3.6864 3.265536 4.261888 5.661696L955.117568 695.008C955.943936 698.413824 954.715136 701.978368 951.975936 704.146176zM554.471424 51.514112l-89.129984 27.4176c-2.692096 0.874496-5.659648 0.349184-7.933952-1.343488-2.289664-1.698816-3.636224-4.370432-3.636224-7.201792l0-168.221696c0-3.986432 2.624512-7.48032 6.464512-8.597504 0.805888-0.228352 1.645568-0.350208 2.48832-0.350208 3.004416 0 5.885952 1.52064 7.549952 4.160512l89.119744 140.798976c1.504256 2.361344 1.819648 5.279744 0.841728 7.882752C559.273984 48.680704 557.140992 50.690816 554.471424 51.514112z"  horiz-adv-x="1024" />

    
    <glyph glyph-name="weixin" unicode="&#58989;" d="M296.512 680.394c-302.228-53.98-402.972-395.441-162.57-551.734 13.181-8.474 13.181-7.532-6.595-66.534l-16.947-50.527 121.772 65.277 32.328-7.844c33.892-8.476 77.204-14.438 106.076-14.438h17.262l-5.965 22.912c-47.391 174.495 116.434 347.423 329.536 347.423h28.874l-5.965 20.713c-46.764 163.51-244.165 269.274-437.806 234.752zM270.149 527.555c32.010-21.658 33.894-68.421 3.136-88.504-49.897-32.64-108.273 24.794-74.693 73.754 14.751 21.967 50.214 29.184 71.557 14.751zM527.501 527.555c52.726-35.466 13.181-117.379-45.824-94.779-42.68 16.32-47.703 75.005-7.846 96.033 15.693 8.471 40.172 7.844 53.67-1.254zM643.935 398.249c-149.701-27.305-253.586-140.915-247.621-271.473 7.846-174.812 212.787-295.324 409.562-241.344l23.222 6.277 48.963-26.365c26.99-14.751 49.587-25.421 50.212-24.161 0.632 1.567-4.705 20.401-11.61 42.053-15.69 48.333-16.008 44.882 5.023 59.945 236.634 169.789 28.874 510.618-277.75 455.068zM637.972 257.334c13.176-8.788 20.086-30.758 14.433-46.764-11.922-34.207-63.078-36.718-76.892-3.766-15.69 37.975 27.622 73.129 62.459 50.529zM847.619 253.568c20.713-19.771 17.262-53.353-6.904-65.905-37.033-18.826-75.95 18.826-56.804 54.922 12.549 23.224 44.874 28.872 63.708 10.982z"  horiz-adv-x="1024" />

    
    <glyph glyph-name="facebook" unicode="&#58881;" d="M512.328704 808.002304C231.589888 808.002304 3.976192 580.388608 3.976192 299.649792c0-280.732672 227.612672-508.346368 508.352512-508.346368 280.732672 0 508.346368 227.612672 508.346368 508.346368C1020.674048 580.451072 793.061376 808.002304 512.328704 808.002304L512.328704 808.002304zM643.73248 299.7184l-83.303424-0.068608-0.062464-305.005568L446.050304-5.355776 446.050304 299.649792l-76.253184 0L369.79712 404.7552l76.253184 0.063488-0.124928 61.889536c0 85.7856 23.25504 137.954304 124.224512 137.954304l84.13184 0 0-105.162752-52.614144 0c-39.33184 0-41.237504-14.680064-41.237504-42.066944l-0.124928-52.615168 94.550016 0L643.73248 299.7184 643.73248 299.7184zM643.73248 299.7184"  horiz-adv-x="1024" />

    
    <glyph glyph-name="yuanjiaojiantoushang" unicode="&#58882;" d="M179.008 26.016C168.832 15.776 157.312 8.16 144.64 3.04c-12.736-5.12-25.856-7.616-39.296-7.616-13.44 0-26.752 2.56-39.808 7.616-13.12 5.12-24.768 12.736-34.944 22.912C10.176 46.368 0 70.752 0 99.104c0 28.352 10.176 52.736 30.528 73.152L438.72 577.12c8.704 10.176 19.84 17.472 33.28 21.824 13.44 4.352 27.456 6.208 42.048 5.44 14.528-0.704 28.928-4.032 43.136-9.792 14.208-5.824 26.368-13.824 36.544-24l401.664-398.336c21.12-20.352 31.68-44.736 31.68-73.152 0-28.352-10.56-52.736-31.68-73.088-10.176-10.176-21.632-17.856-34.368-22.912-12.736-5.12-25.856-7.616-39.296-7.616-13.44 0-26.752 2.56-39.872 7.616-13.12 5.12-24.768 12.736-34.944 22.912l-333.952 329.6L179.008 26.016 179.008 26.016zM179.008 26.016"  horiz-adv-x="1024" />

    
    <glyph glyph-name="circularmap" unicode="&#58883;" d="M502.528 381.472c0.064 0.128 0.128 0.192 0.192 0.256C502.528 382.752 502.336 383.52 502.272 384.096 502.4 383.264 502.464 382.368 502.528 381.472zM686.848 180.256 686.848 180.256c0 0-0.128 0-0.128 0.064C686.72 180.256 686.784 180.256 686.848 180.256zM691.584 179.616c-1.152 0.192-3.712-0.128-4.672 0.64C686.272 178.08 687.168 177.248 691.584 179.616zM512 780C246.912 780 32 565.152 32 300s214.912-480 480-480c265.152 0 480 214.848 480 480S777.152 780 512 780zM818.56 592.48c-16.512-0.512-28.032-0.512-41.344-9.664-5.312-3.712-9.024-8.64-15.744-10.496-6.144-1.664-12.672-0.192-18.752-2.304-21.824-7.36-18.304-54.144-47.04-46.976-13.504 3.264-22.976 19.264-29.824 29.632-6.016 9.216-16.896 16.768-9.472 28.224-3.392-0.896-6.912 0.128-10.24-0.512 4.544 10.112 20.032 9.28 22.592 14.4 6.464 12.928-17.536 14.336-24.384 16.128 8.192 8.768 12.288-3.008 20.416-1.024 7.744 1.92-4.096 12.096-8.768 13.312-1.664 0.448-29.056-7.552-13.248 6.656-19.52 12.416-39.04 24.96-58.624 37.44-3.328-13.888 25.984-21.76 35.584-26.688C618.24 634.848 609.344 626.528 602.496 628.96c-6.464 2.304-3.84 12.928-13.504 11.968-6.912-16.128 14.656-11.456 16.64-21.312 2.24-11.264-8.192-6.464-12.16-6.336C592.512 613.344 585.024 621.088 584.64 615.264c-0.512-6.976 11.968-4.224 12.8-11.328C582.912 603.36 575.552 608.544 563.84 616.352c-13.76 9.152-20.8 8.32-37.632 8.32 5.056 2.048 12.032 3.584 16.256 6.912C544.832 633.44 554.048 642.4 554.624 644.384c2.624 8.64-0.128 8-8.384 13.632C538.88 663.072 529.984 672.096 521.088 673.888 488.832 680.288 511.104 644.768 486.656 639.904 487.04 639.84 487.552 639.84 487.872 639.84L486.528 639.84c0.064 0 0.064 0.064 0.128 0.064C481.024 639.968 470.4 641.376 466.752 638.432 464.128 636.384 463.936 627.872 461.056 624.8 455.936 619.36 448.32 618.272 442.176 614.304 436.16 610.528 423.04 600.608 419.584 593.888 406.656 569.248 448.64 561.568 464.576 554.4 471.744 551.072 492.8 546.656 496.768 541.152 502.016 533.856 492.16 527.008 503.168 521.888 506.688 520.224 513.92 519.904 516.928 523.232c4.864 5.568-1.984 6.72-3.2 13.184-2.24 12.288 1.472 7.424 7.68 11.968C534.08 557.728 531.2 558.24 526.656 573.152 524.544 580 516.608 599.264 523.648 604.384c9.088 6.656 28.48-3.648 35.52-4.48C567.232 598.88 571.904 587.616 576.32 583.008c2.944-3.008 8.192-9.472 13.312-8.832 8.192 1.152 4.736 8.256 9.472 11.584C611.84 594.528 615.104 582.624 620.16 570.656c4.8-11.264 9.344-15.36 17.728-22.656 3.968-3.392 21.184-15.296 19.584-22.72-1.088-4.928-20.8-12.48-26.048-14.144C612.16 504.992 576.064 521.12 572.16 490.592 579.712 493.344 600.96 510.688 607.296 502.496c2.88-3.776-2.304-9.216-1.152-12.864C609.856 478.496 618.432 482.4 627.392 484.128 626.816 483.744 626.176 483.424 625.472 483.104 637.76 489.44 636.48 488.096 642.112 498.4c1.856 3.392 4.544 11.456 7.168 13.824 8.96 8.192 10.304 2.56 15.808-3.84 1.408-1.6 15.104-21.312 10.24-20.352-15.872 3.264-31.168 2.816-44.288-5.888C623.424 477.152 616.256 470.304 607.168 466.976 604.992 466.208 588.864 464.608 590.72 467.36 593.536 471.392 603.136 474.08 606.848 478.368c-10.432 4.288-19.2-5.184-27.392-10.752-8.768-4.096-10.752-11.84-18.176-18.56C558.08 446.112 551.936 445.6 548.736 441.76c-3.136-3.776-3.456-9.6-6.4-13.248C540.288 426.016 534.976 427.488 532.864 423.776 530.048 418.848 535.424 414.24 534.272 410.72 532.096 404.32 519.872 398.88 515.2 394.272c0.64 0.64 1.28 1.216 1.856 1.856C512.32 391.136 506.368 387.488 502.656 381.728 504.384 373.664 509.696 354.4 508.16 349.984 503.296 335.392 493.824 357.856 489.92 363.744 476.608 383.776 450.048 370.4 432 368.672 408.832 366.56 386.112 336.48 400.384 312.032c6.848-11.712 18.432-16.256 31.68-13.568C443.84 300.96 447.36 317.408 458.432 317.728c20.416 0.512 0.512-20.032-1.28-27.584C455.552 283.232 459.712 282.592 466.88 280.8c5.312-1.28 12.864 2.304 17.408-0.768C487.168 278.176 487.04 267.68 491.072 271.008 483.2 264.48 485.056 249.056 493.056 243.488c8.96-6.208 19.456-0.512 28.736-2.816C539.52 236.192 531.072 242.016 546.496 251.36c10.496 6.272 12.16-1.216 19.392-1.216C570.688 250.144 573.824 257.12 581.952 255.136 588.544 253.408 591.168 248.288 599.04 247.136c3.264-0.448 6.656 1.28 9.664 0.896 14.656-1.6 25.792-10.944 37.376-19.456 9.472-6.912 15.744-5.504 26.88-8.704 8.128-2.304 23.04-14.08 22.336-24.384-0.128-1.792-7.232-11.072-8.448-15.232 2.048-1.408 16.512 1.792 20.672 2.048-1.344-1.536-11.2-8.512-11.2-4.8 0-1.856 6.912-5.76 8.64-6.912 5.12 16.64 13.568 5.952 23.68 1.792 8.64-3.52 19.264-3.712 28.416-5.888 7.744-1.856 24.96-7.168 30.72-13.504 6.912-7.68 2.112-20.096-3.008-27.84-6.72-9.984-16.896-13.824-21.056-25.6-3.328-9.344-0.896-18.688-2.752-29.056-2.56-14.016-4.608-9.152-13.632-17.6-7.616-7.168-0.128-5.952-10.496-10.56-10.304-4.544-19.456-3.264-26.688-14.656 0.32 0.768 0.576 1.408 0.768 2.176-3.008-4.224-4.544-12.928-6.016-15.744-3.584-7.232-8.576-11.904-14.336-17.92-2.176-2.304-22.4-29.888-23.552-27.712-1.472 2.88-17.344-2.88-18.112 1.28 0.64-3.456-0.192-2.304 3.776-4.224-3.648-22.656-13.184-26.048-35.456-26.304 1.856-10.88-8.064-8.704-12.736-14.592-2.688-3.456-4.032-13.056-5.888-17.408-1.152-2.816-9.792-13.952-9.792-16.128-0.064-2.048 2.88-4.992 5.632-7.872-15.68-3.136-31.616-5.312-47.936-6.656 3.072 3.904 3.84 7.168-5.888 7.68 2.56 6.976 8.704 11.072 11.264 17.856 1.216 3.2 0.192 4.48 1.28 7.68 3.52 11.008 1.984 6.784 0 15.36-4.672 20.032 1.664 25.536 7.104 43.904 5.632 18.88 5.056 43.328 8.704 63.616 1.664 9.728 4.48 29.952 1.152 39.104-3.84 10.368-20.544 18.496-28.16 25.408-10.88 9.856-16.64 20.544-24.704 32.832-4.032 6.208-8.768 12.224-11.968 19.008-6.784 14.464 0 5.888 1.216 14.4 1.088 8.256-1.024 15.552 2.24 24.192 3.648 9.536 12.608 15.488 15.552 25.152 2.688 8.64 0.704 19.392-8.128 22.208-4.928 1.6-10.304-2.048-15.232-1.28C494.08 234.784 486.336 239.968 480.896 244.064 473.344 249.76 470.528 259.04 462.528 264.544c-6.656 4.48-11.456 1.792-18.624 3.968C436.352 270.688 431.744 279.968 425.664 282.784 416.64 287.136 411.584 280.928 401.92 282.208 393.792 283.232 381.376 292.256 373.824 295.712 358.336 302.56 348.928 310.24 342.72 325.92 337.408 339.36 329.728 345.632 320.64 356.896 311.424 368.224 308.544 377.888 294.4 380.96 292.672 381.28 297.792 368.992 298.368 367.968c5.056-9.344 12.672-17.92 18.752-26.688 9.088-12.864 5.248-15.296-3.968-2.88C302.656 352.672 290.496 366.88 281.408 381.984c-3.456 5.632-2.816 9.344-8.448 14.72C267.52 402.016 260.288 404.576 254.784 409.504 234.944 427.36 231.296 451.232 233.6 476.704c0.704 8.32 3.712 14.912 2.368 22.912C234.944 506.272 230.976 511.712 226.112 516.576 224.576 519.072 220.544 525.28 220.352 525.6c-4.48 7.488-8 14.848-15.168 20.992-4.032 3.584-14.72 11.84-24.768 18.752 44.992 56.128 103.808 100.48 171.328 128.128 0.512-3.392 1.984-6.72 4.16-9.984C361.472 675.232 366.72 675.872 377.6 673.632 376.448 661.024 361.728 660.96 351.808 662.304 339.968 663.968 327.424 667.872 317.12 657.504c5.696-3.456 21.312-16.768 19.264-2.88 11.392 0.64 22.4 0.96 33.408-0.384 4.48-0.64 19.456-5.632 23.488-3.328C395.008 651.872 396.8 660.256 398.656 662.88c-3.2 0-6.592 1.536-9.728 1.28 7.36 9.408 14.656 2.048 24.128-2.24C402.624 655.584 408.768 640.48 418.88 652.768c8.32 9.984-2.048 17.344-12.544 23.104C416.96 689.184 423.488 690.4 433.408 675.36 435.136 684.64 442.56 680.992 450.368 680.224L450.368 682.656C446.912 682.528 443.264 684.512 439.872 684.128 447.808 696.8 442.752 699.68 454.08 703.904 463.104 707.104 488.96 704.032 492.096 712.544 474.048 709.088 452.224 708.256 435.968 700c-6.976-3.52-15.36-14.72-22.4-7.424C406.4 700 418.688 711.968 425.024 715.616L423.488 715.616C452.032 721.76 481.6 725.024 512 725.024c19.648 0 38.912-1.472 57.792-4.032C563.264 717.472 568.128 715.104 563.328 711.648 554.24 704.992 538.048 699.36 527.232 695.136c13.76 0.064 47.104-12.864 53.504 6.4C576.32 702.24 571.904 702.88 567.424 703.648c8.32 5.504 17.536 9.92 27.328 13.184 87.744-17.344 165.76-61.888 225.152-124.288C819.456 592.48 819.008 592.48 818.56 592.48zM896.32 423.968c0.768 1.664 2.624 2.24 3.392 3.648 1.6 2.88 1.28 4.864 3.2 7.36 2.112 2.752 4.992 3.392 7.296 5.504 1.024 0.896 1.536 1.664 1.92 2.496 7.104-19.776 12.736-40.256 16.896-61.184-0.128-0.192-0.256-0.384-0.384-0.512-1.024-0.832-7.744-1.792-9.152-1.856-4.864-0.192-8.512 3.072-12.032 6.08-3.584 3.136-7.744 7.232-10.304 11.264-2.688 4.224-1.024 8.704-0.832 13.568C896.576 414.432 894.592 420.256 896.32 423.968zM901.76 203.872c-8.256 7.168-17.92 16.832-23.808 26.048-6.272 9.856-2.368 20.032-1.92 31.424 0.384 9.472-4.224 23.04-0.256 31.616 1.856 3.968 6.144 5.248 7.872 8.448 3.776 6.784 2.944 11.392 7.488 17.28C896 324.96 902.656 326.496 908.032 331.36c5.76 5.184 5.568 9.28 9.28 15.872 2.624 4.8 8.896 12.864 14.72 17.152C935.296 343.392 937.024 321.888 937.024 300c0-37.824-5.056-74.496-14.4-109.376C914.688 192.608 908.096 198.368 901.76 203.872z"  horiz-adv-x="1024" />

    
    <glyph glyph-name="shang" unicode="&#58903;" d="M2.245976 301.924977c0-281.720196 228.336484-510.096423 509.990442-510.096423 281.665168 0 509.994519 228.375208 509.994519 510.096423 0 281.699815-228.329351 510.075023-509.994519 510.075023C230.58246 812 2.245976 583.623773 2.245976 301.924977zM955.990948 301.924977c0-245.130352-198.67513-443.835034-443.754529-443.835034-245.081438 0-443.758606 198.705701-443.758606 443.835034 0 245.118124 198.677168 443.821786 443.758606 443.821786C757.315818 745.746763 955.990948 547.0431 955.990948 301.924977zM514.152224 460.642317 242.7305 189.220593 283.464802 148.485273 514.152224 379.172694 744.839646 148.485273 785.574967 189.220593Z"  horiz-adv-x="1024" />

    
    <glyph glyph-name="shuaxin" unicode="&#58884;" d="M676.864 64.672c-49.984-35.072-108.544-52.544-168.32-51.84-7.936 0.128-15.744 0.704-23.552 1.28-3.136 0.32-6.336 0.832-9.472 1.28-6.208 0.768-12.16 1.536-18.176 2.752-3.648 0.64-7.36 1.664-10.88 2.496-5.888 1.28-11.648 2.56-17.408 4.224-2.688 1.024-5.312 1.856-8 2.944-6.656 2.048-13.184 4.416-19.52 7.04-1.408 0.64-2.816 1.152-4.288 1.728-7.424 3.392-14.784 6.912-21.888 10.624-0.256 0.192-0.64 0.32-0.896 0.512-24.128 13.312-46.08 29.568-65.408 49.088-0.32 0.32-0.576 0.704-0.96 1.024-6.016 6.016-11.712 12.16-17.152 18.88-1.088 1.344-2.176 2.688-3.328 4.352-39.232 49.152-62.912 111.36-62.912 178.944l75.712 0L179.264 481.632 58.304 300.128l75.584 0c0-79.488 24.896-153.216 67.008-214.272 0.512-0.896 0.832-1.856 1.408-2.624 4.352-6.336 9.216-12.032 13.888-17.856 1.792-2.112 3.328-4.288 5.248-6.72 6.848-8.256 14.272-16.128 21.76-23.872 0.768-0.768 1.408-1.408 2.048-2.112 25.344-25.408 53.888-46.656 85.056-63.808 0.832-0.448 1.536-0.832 2.496-1.344 8.96-4.864 18.176-9.28 27.456-13.376 2.368-1.024 4.608-2.048 6.912-3.008 8.064-3.392 16.256-6.272 24.512-9.088 3.904-1.344 7.744-2.624 11.712-3.904 7.232-2.048 14.592-3.904 22.016-5.632 4.992-1.152 9.728-2.432 14.848-3.328 2.048-0.512 3.968-1.152 6.08-1.344 7.104-1.28 14.144-1.92 21.056-2.752 2.56-0.448 5.12-0.896 7.616-1.152 12.608-1.216 25.216-1.984 37.76-1.984 76.8 0 151.808 23.488 216.192 68.608 20.48 14.4 25.536 42.752 11.2 63.104C725.568 74.208 697.344 79.2 676.864 64.672M889.984 300.128c0 79.296-24.576 152.96-66.496 213.696-0.64 1.024-1.024 2.112-1.536 3.008-5.44 7.488-10.944 14.464-16.704 21.44-0.64 0.768-1.28 1.664-1.856 2.56-38.528 46.4-86.72 82.432-141.184 105.984-1.6 0.64-2.944 1.344-4.544 1.984-8.768 3.584-17.664 6.72-26.752 9.792-3.072 1.024-6.4 2.176-9.6 3.136C613.376 664.224 605.568 666.208 597.568 668.064c-4.416 0.96-8.96 2.112-13.376 3.008C581.952 671.456 579.968 672.096 577.6 672.544 571.648 673.504 565.76 674.08 559.744 674.784 555.584 675.296 551.616 675.936 547.392 676.384 537.344 677.344 527.36 677.728 517.376 677.92c-1.792 0-3.584 0.256-5.44 0.256-0.32 0-0.64-0.064-0.96-0.128C434.24 677.984 359.36 654.816 295.104 609.76c-20.48-14.336-25.536-42.624-11.072-63.232C298.304 526.112 326.72 521.056 347.264 535.52c49.6 34.688 107.456 52.352 166.848 51.776 8.512-0.064 17.024-0.448 25.28-1.28 2.56-0.192 5.056-0.576 7.616-0.96C553.856 584.16 560.64 583.264 567.296 581.856c2.88-0.512 5.888-1.28 8.64-1.92 6.656-1.472 13.056-3.008 19.456-4.992 2.112-0.576 4.032-1.28 6.016-2.048 7.424-2.368 14.656-4.928 21.568-7.872 0.768-0.192 1.472-0.768 2.176-1.024 42.368-18.176 79.424-46.144 108.416-81.216 0.064-0.128 0.192-0.384 0.448-0.576 40.768-49.664 65.216-113.024 65.28-182.08l-75.776 0 121.216-181.568 120.896 181.568L889.984 300.128 889.984 300.128zM889.984 300.128"  horiz-adv-x="1024" />

    
    <glyph glyph-name="anzhuo" unicode="&#58885;" d="M291.289226 96.854277c0-28.344558 22.397103-51.42523 49.930179-51.42523l36.048007 0c-1.207501-4.26821-1.886977-8.826016-1.886977-13.490246l0-102.794178c0-26.878161 21.193695-48.699142 47.312562-48.699142 26.14138 0 47.307446 21.820981 47.307446 48.699142L470.000444 31.938801c0 4.688789-0.707105 9.222035-1.886977 13.490246l87.865163 0c-1.203408-4.26821-1.886977-8.826016-1.886977-13.490246l0-102.794178c0-26.878161 21.193695-48.699142 47.311539-48.699142 26.118867 0 47.312562 21.820981 47.312562 48.699142L648.715755 31.938801c0 4.688789-0.679475 9.222035-1.911536 13.490246l36.043914 0c27.561729 0 49.934273 23.080671 49.934273 51.42523l0 357.062232L291.238061 453.916509l0-357.062232L291.289226 96.854277zM212.410738 453.916509c-26.145473 0-47.311539-21.797445-47.311539-48.674583l0-208.263277c0-26.877137 21.166065-48.674583 47.311539-48.674583 26.118867 0 47.312562 21.797445 47.312562 48.674583l0 208.263277c0 26.90579-21.193695 48.699142-47.312562 48.699142L212.410738 453.916509zM811.656801 453.916509c-26.117844 0-47.28391-21.797445-47.28391-48.674583l0-208.263277c0-26.877137 21.166065-48.674583 47.28391-48.674583 26.117844 0 47.288003 21.797445 47.288003 48.674583l0 208.263277c0 26.90579-21.170159 48.699142-47.288003 48.699142L811.656801 453.916509zM620.606557 648.792894l37.302581 57.604976c2.409886 3.720741 1.415232 8.777921-2.174526 11.239995-3.665483 2.514263-8.538467 1.490957-10.977006-2.254344l-21.061688-32.533974-8.877181-13.674441-8.986675-13.887288c-28.504194 11.368932-60.278875 17.735943-93.811596 17.735943-33.529651 0-65.308425-6.391571-93.78499-17.735943l-17.839297 27.561729L379.282303 715.383522c-2.410909 3.721765-7.30743 4.740978-10.949376 2.254344-3.588735-2.490727-4.584412-7.519254-2.174526-11.239995l37.303604-57.604976c-66.906829-32.066323-112.200408-92.869131-112.200408-162.418137l441.520809 0c0 69.549006-45.26902 130.327254-112.175849 162.389484L620.606557 648.792894zM417.423995 551.314793c-13.07069 0-23.655769 10.924817-23.655769 24.335245 0 13.414521 10.585079 24.311709 23.655769 24.311709 13.047154 0 23.655769-10.872628 23.655769-24.311709C441.079764 562.210957 430.471149 551.314793 417.423995 551.314793L417.423995 551.314793zM606.668103 551.314793c-13.071713 0-23.652699 10.924817-23.652699 24.335245 0 13.414521 10.580986 24.311709 23.652699 24.311709 13.074783 0 23.63121-10.872628 23.63121-24.311709C630.299313 562.210957 619.715257 551.314793 606.668103 551.314793L606.668103 551.314793zM606.668103 551.314793M293.031916 97.123406c0-28.344558 22.397103-51.42523 49.930179-51.42523l36.048007 0c-1.207501-4.26821-1.886977-8.826016-1.886977-13.490246l0-102.794178c0-26.878161 21.193695-48.699142 47.312562-48.699142 26.14138 0 47.307446 21.820981 47.307446 48.699142L471.743134 32.207931c0 4.688789-0.707105 9.222035-1.886977 13.490246l87.865163 0c-1.203408-4.26821-1.886977-8.826016-1.886977-13.490246l0-102.794178c0-26.878161 21.193695-48.699142 47.311539-48.699142 26.118867 0 47.312562 21.820981 47.312562 48.699142L650.458445 32.207931c0 4.688789-0.679475 9.222035-1.911536 13.490246l36.043914 0c27.561729 0 49.934273 23.080671 49.934273 51.42523l0 357.062232L292.980751 454.185638l0-357.062232L293.031916 97.123406zM214.153428 454.185638c-26.145473 0-47.311539-21.797445-47.311539-48.674583l0-208.263277c0-26.877137 21.166065-48.674583 47.311539-48.674583 26.118867 0 47.312562 21.797445 47.312562 48.674583l0 208.263277c0 26.90579-21.193695 48.699142-47.312562 48.699142L214.153428 454.185638zM813.398468 454.185638c-26.117844 0-47.28391-21.797445-47.28391-48.674583l0-208.263277c0-26.877137 21.166065-48.674583 47.28391-48.674583 26.117844 0 47.288003 21.797445 47.288003 48.674583l0 208.263277c0 26.90579-21.170159 48.699142-47.288003 48.699142L813.398468 454.185638zM622.349247 649.062024l37.302581 57.604976c2.409886 3.720741 1.415232 8.777921-2.174526 11.239995-3.665483 2.514263-8.538467 1.490957-10.977006-2.254344l-21.061688-32.533974-8.877181-13.674441-8.986675-13.887288c-28.504194 11.368932-60.278875 17.735943-93.811596 17.735943-33.529651 0-65.308425-6.391571-93.78499-17.735943l-17.839297 27.561729L381.024993 715.652652c-2.410909 3.721765-7.30743 4.740978-10.949376 2.254344-3.588735-2.490727-4.584412-7.519254-2.174526-11.239995l37.303604-57.604976c-66.906829-32.066323-112.200408-92.869131-112.200408-162.418137l441.520809 0c0 69.549006-45.26902 130.327254-112.175849 162.389484L622.349247 649.062024zM419.166685 551.583922c-13.07069 0-23.655769 10.924817-23.655769 24.335245 0 13.414521 10.585079 24.311709 23.655769 24.311709 13.047154 0 23.655769-10.872628 23.655769-24.311709C442.822454 562.480087 432.213839 551.583922 419.166685 551.583922L419.166685 551.583922zM608.410793 551.583922c-13.071713 0-23.652699 10.924817-23.652699 24.335245 0 13.414521 10.580986 24.311709 23.652699 24.311709 13.074783 0 23.63121-10.872628 23.63121-24.311709C632.042004 562.480087 621.457948 551.583922 608.410793 551.583922L608.410793 551.583922zM608.410793 551.583922"  horiz-adv-x="1024" />

    
    <glyph glyph-name="home" unicode="&#58906;" d="M1024 207.52 512 604.896 0 207.52 0 369.504l512 397.44 512-397.44L1024 207.52zM896 221.92l0-384-256 0 0 256L384 93.92l0-256L128-162.08l0 384 384 288L896 221.92z"  horiz-adv-x="1024" />

    
    <glyph glyph-name="4" unicode="&#58907;" d="M810.37818 180.649751C711.023334-15.288826 511.564583-140.028828 511.564583-140.028828S311.452963-13.981041 212.75201 180.649751c-100.481506 198.173478-99.591229 465.021036-99.591229 465.021036s113.179712 7.290033 215.795834 32.063253C425.344896 701.005047 511.564583 741.879989 511.564583 741.879989s111.044072-54.888098 215.796858-80.177064c93.855598-22.657023 182.586478-16.032138 182.586478-16.032138S910.204769 377.576843 810.37818 180.649751L810.37818 180.649751zM843.568093 597.567209c0 0-112.964818 11.225669-199.202924 32.073486-79.475076 19.196201-132.800585 48.094368-132.800585 48.094368s-55.145971-25.613354-132.801609-48.094368c-87.741343-25.437345-199.200878-48.094368-199.200878-48.094368s3.322675-211.040531 83.014692-368.81388C348.638887 42.281357 511.564583-75.904369 511.564583-75.904369S692.31218 60.724405 777.146311 228.773795C858.224908 389.26607 843.568093 597.567209 843.568093 597.567209L843.568093 597.567209zM770.680039 292.899278 528.177959 292.899278l0-294.291606c-10.423397-6.825452-16.613376-10.355859-16.613376-10.355859S377.616872 75.006689 295.767725 228.773795c-15.526625 29.136597-27.393907 62.385862-36.512588 96.188736l235.695047 0L494.950184 624.923254l16.614399 4.717442 298.813596-80.187297C810.37818 549.453399 808.893362 409.423155 770.680039 292.899278L770.680039 292.899278zM229.426785 544.467851c-0.138146 5.628184-0.079818 4.985548-0.079818 4.985548l0.158612 0.049119 0-8.762571L229.426785 544.467851z"  horiz-adv-x="1024" />

    
    <glyph glyph-name="sousuo" unicode="&#58936;" d="M1015.111051-125.596118 723.051275 168.387473c118.749568 156.845211 106.645902 381.213281-36.368302 524.226462-156.304905 156.304905-409.726685 156.304905-566.031591 0-156.304905-156.26909-156.304905-409.691893 0-565.996798 142.963039-142.963039 367.155101-155.137313 523.988032-36.58115l292.124244-294.01429c9.598612-9.597589 25.205055-9.597589 34.801621 0l43.546795 43.546795C1024.743432-150.799126 1024.743432-135.19473 1015.111051-125.596118zM194.804243 198.602635c-114.784256 114.783233-114.784256 300.878628 0 415.627069 114.78528 114.784256 300.841789 114.784256 415.628092 0 114.78528-114.748441 114.78528-300.843836 0-415.627069C495.646032 83.817356 309.589522 83.817356 194.804243 198.602635z"  horiz-adv-x="1024" />

    
    <glyph glyph-name="xiajiantou" unicode="&#58887;" d="M929.805 214.248c37.852 36.367 37.852 95.881 0 132.248l-8.341 8.014c-37.852 36.368-99.795 36.368-137.648 0L580.824 159.481c-37.852-36.368-99.795-36.368-137.648 0L240.184 354.51c-37.852 36.368-99.795 36.368-137.648 0l-8.341-8.014c-37.852-36.368-37.852-95.881 0-132.248l348.981-335.291c37.852-36.367 99.796-36.367 137.648 0L929.805 214.248zM512 747.912c-53.534 0-97.326-42.074-97.326-93.508L414.674 140.11c0-51.434 43.792-93.508 97.326-93.508l0 0c53.534 0 97.326 42.074 97.326 93.508L609.326 654.404C609.326 705.838 565.534 747.912 512 747.912L512 747.912z"  horiz-adv-x="1024" />

    
    <glyph glyph-name="linkedin" unicode="&#58888;" d="M511.096993-211.999982C229.361548-211.999982 0 17.361566 0 300.903007 0 582.638452 229.361548 812 511.096993 812 794.638434 812 1023.999982 582.638452 1023.999982 300.903007 1023.999982 17.361566 794.638434-211.999982 511.096993-211.999982M368.423274 405.650801l-99.329804 0 0-319.66137 99.329804 0L368.423274 405.650801zM377.453256 501.368612c0 30.701939-23.477954 55.98589-59.597883 55.98589-36.119929 0-61.403879-23.477954-61.403879-55.98589 0-30.701939 23.477954-55.98589 59.597883-55.98589l0 0C353.975302 445.382723 377.453256 468.860676 377.453256 501.368612zM767.548487 262.977082c0 99.329804-55.98589 144.479715-126.419751 144.479715-57.791886 0-92.105818-30.701939-99.329804-52.373897l0 50.5679-111.971779 0c1.805996-27.089947 0-319.66137 0-319.66137L541.798932 85.989431l0 173.375658c0 9.029982 0 19.865961 1.805996 25.28395 7.223986 19.865961 23.477954 39.731922 54.179893 39.731922 39.731922 0 55.98589-28.895943 55.98589-72.239858l0-166.151673 113.777776 0L767.548487 262.977082z"  horiz-adv-x="1024" />

    
    <glyph glyph-name="pingguo" unicode="&#58889;" d="M644.48 606.816c49.344 57.472 44.864 142.528 44.864 142.528S605.12 741.536 555.808 684c-49.344-57.376-44.864-142.592-44.864-142.592S595.136 549.28 644.48 606.816L644.48 606.816zM751.456 275.168c0 72.544 40 135.744 98.976 168.576-41.216 59.52-113.728 92.48-164.096 92.48-60.576 0-144.032-42.784-168.256-42.784-25.728 0-79.648 38.688-151.488 39.744-59.328 0.864-159.008-33.632-193.888-135.968-34.848-102.24-33.216-250.08 39.712-387.424 58.496-109.984 110.208-154.528 160.224-154.528 50.08 0 109.088 38.208 156.096 38.208 46.944 0 90.912-38.208 139.424-38.208 48.416 0 98.432 39.776 134.784 94.688 36.352 55.04 69.76 140.512 69.76 140.512s0.192 2.24 0.672 5.504C802.048 123.808 751.456 193.504 751.456 275.168L751.456 275.168zM751.456 275.168"  horiz-adv-x="1024" />

    
    <glyph glyph-name="delete" unicode="&#58921;" d="M556.8 300l230.4 230.4c12.8 12.8 12.8 32 0 44.8s-32 12.8-44.8 0L512 344.8 281.6 575.2c-12.8 12.8-32 12.8-44.8 0s-12.8-32 0-44.8L467.2 300l-230.4-230.4c-12.8-12.8-12.8-32 0-44.8 6.4-6.4 12.8-6.4 25.6-6.4s19.2 0 25.6 6.4L512 255.2l230.4-230.4c6.4-6.4 12.8-6.4 25.6-6.4s19.2 0 25.6 6.4c12.8 12.8 12.8 32 0 44.8L556.8 300z"  horiz-adv-x="1024" />

    
    <glyph glyph-name="iconfont90" unicode="&#58901;" d="M959.008 456.992l-14 0 0 102c0 35.344-28.656 64-64 64l-400 0L481.008 680.992c0 35.344-28.656 64-64 64l-352 0c-35.344 0-64-28.656-64-64l0-762c0-35.344 28.656-64 64-64l816 0c35.344 0 64 28.656 64 64l78 474C1023.008 428.336 994.352 456.992 959.008 456.992zM49.008 648.992c0 35.344 12.656 48 48 48l288 0c35.344 0 48-12.656 48-48l0-74 2 0 46 0 368 0c35.344 0 48-12.656 48-48l0-70L143.008 456.992c-35.344 0-64-28.656-64-64L49.008 198.384 49.008 648.992zM897.008-49.008c0-35.344-12.656-48-48-48l-752 0c-35.344 0-48 12.656-48 48l78 410c0 35.344 12.656 48 48 48l752 0c35.344 0 48-12.656 48-48L897.008-49.008z"  horiz-adv-x="1024" />

    
    <glyph glyph-name="socialfacebook" unicode="&#59505;" d="M576 428l0 76.2c0 34.4 7.6 51.8 61 51.8L704 556 704 684l-111.8 0c-137 0-182.2-62.8-182.2-170.6L410 428l-90 0 0-128 90 0 0-384 166 0L576 300l112.8 0 15.2 128L576 428z"  horiz-adv-x="1024" />

    
    <glyph glyph-name="gantanhao01" unicode="&#58890;" d="M507.111374 812l10.872797 0c58.006371-3.642387 90.733489-36.369505 98.072627-98.072627-29.084731-217.890847-63.605861-435.781693-103.454661-653.563812L496.238577 60.363561C474.384256 216.442558 450.790287 376.218307 425.402306 539.636442 410.832759 652.169888 405.39636 712.078998 409.038747 719.418136 416.323521 777.424506 448.996275 808.357613 507.111374 812zM496.238577-26.836269l16.363559 0c50.830325-7.339138 79.806328-38.109153 87.145466-92.581864l0-10.872797c-10.872797-47.242302-38.109153-74.36993-81.709068-81.709068L501.620612-211.999997c-58.060735 7.339138-88.993841 34.466766-92.581864 81.709068l0 16.363559C416.323521-63.15141 445.299524-34.121042 496.238577-26.836269z"  horiz-adv-x="1024" />

    
    <glyph glyph-name="money" unicode="&#58908;" d="M512 792.307692C240.099919 792.307692 19.692308 571.890314 19.692308 300 19.692308 28.109686 240.099919-192.307692 512-192.307692 783.890314-192.307692 1004.307692 28.109686 1004.307692 300 1004.307692 571.890314 783.890314 792.307692 512 792.307692L512 792.307692ZM681.402604 260.566626C697.468377 260.566626 710.551119 247.493691 710.551119 231.418112 710.551119 215.342572 697.468377 202.25987 681.402604 202.25987L541.148514 202.25987 541.148514 82.312251C541.148514 66.246439 528.065812 53.163737 512 53.163737 495.92446 53.163737 482.841718 66.246439 482.841718 82.312251L482.841718 202.25987 342.597396 202.25987C326.521856 202.25987 313.448881 215.342572 313.448881 231.418112 313.448881 247.493691 326.521856 260.566626 342.597396 260.566626L482.841718 260.566626 482.841718 316.231542 342.597396 316.231542C326.521856 316.231542 313.448881 329.314245 313.448881 345.389785 313.448881 361.465364 326.521856 374.538299 342.597396 374.538299L433.591454 374.538299 367.310297 445.342897C361.987505 451.026334 359.19939 458.435328 359.452869 466.224542 359.706309 474.003948 362.981888 481.217989 368.665364 486.540741 379.97379 497.118031 399.315141 496.464876 409.872975 485.195441L510.118518 378.106309 613.464143 490.635205C618.377452 498.268377 627.511966 503.210949 637.39711 503.210949 643.06109 503.210949 648.55934 501.563451 653.326415 498.453602 666.789337 489.660318 670.571835 471.557061 661.778511 458.103867L585.124746 374.538299 681.402604 374.538299C697.468377 374.538299 710.551119 361.465364 710.551119 345.389785 710.551119 329.314245 697.468377 316.231542 681.402604 316.231542L541.148514 316.231542 541.148514 260.566626 681.402604 260.566626 681.402604 260.566626Z"  horiz-adv-x="1024" />

    
    <glyph glyph-name="wenjian" unicode="&#58902;" d="M212.90039 746.060195l406.125671 0c9.381671 0 18.190291-3.874237 24.552186-9.950629l247.6401-247.762897c6.610558-7.218402 10.19827-15.741519 10.19827-24.753777l0-0.979304 0-515.999081c0-25.084305-10.19827-47.922453-27.246551-64.685231l0 0-0.978281-0.777713c-16.474206-16.268522-39.153742-26.264177-63.702857-26.264177L212.90039-145.112614c-24.796756 0-47.635927 10.19827-64.683185 27.04189l0 0c-16.558118 16.762779-26.998911 39.600927-26.998911 64.685231L121.218294 654.337167c0 25.285896 10.440793 48.164976 26.998911 64.766073C164.693458 735.825087 187.61347 746.060195 212.90039 746.060195L212.90039 746.060195zM311.760978 64.112572 311.760978 64.112572l343.973122 0c11.662621 0 20.635993 9.257851 20.635993 20.431332 0 11.175527-8.973372 20.717857-20.635993 20.717857L311.760978 105.261761c-11.256368 0-20.555152-9.54233-20.555152-20.717857C291.205826 73.370423 300.50461 64.112572 311.760978 64.112572L311.760978 64.112572zM311.760978 208.854117 311.760978 208.854117l234.509035 0c11.174504 0 20.146852 9.013281 20.146852 20.22974 0 11.622712-8.972349 20.87954-20.146852 20.87954L311.760978 249.963397c-11.256368 0-20.555152-9.256828-20.555152-20.87954C291.205826 217.866375 300.50461 208.854117 311.760978 208.854117L311.760978 208.854117zM311.760978 353.637618 311.760978 353.637618 710.464609 353.637618c11.420097 0 20.639063 9.215896 20.639063 20.351514 0 11.499915-9.218966 21.001313-20.639063 21.001313L311.760978 394.990444c-11.256368 0-20.555152-9.501398-20.555152-21.001313C291.205826 362.854537 300.50461 353.637618 311.760978 353.637618L311.760978 353.637618zM598.717526 677.666502 598.717526 677.666502l-385.817136 0c-6.362918 0-12.071943-2.406816-16.314571-7.014764-4.077875-4.117784-6.5246-9.991562-6.5246-16.313547l0-707.72266c0-6.324032 2.447748-12.154831 6.5246-16.313547l0 0c4.242627-4.366448 9.951653-6.77224 16.314571-6.77224L809.48995-76.470257c6.279007 0 12.151761 2.406816 15.987113 6.525624l0.651846 0.246617c3.753487 4.158716 6.688329 9.990538 6.688329 16.313547L832.817238 443.403061 676.370093 443.403061c-21.12718 0-40.865733 8.484232-55.138808 22.799262l-1.061169 1.26276c-13.377682 14.112416-21.452591 33.118282-21.452591 54.03773L598.717526 677.666502 598.717526 677.666502zM797.742395 484.269817 797.742395 484.269817 639.665123 642.673523l0-121.17071c0-9.744945 3.914146-18.717294 9.787924-25.326828l0.896416-0.935302c6.770194-6.608511 15.987113-10.970866 26.02063-10.970866L797.742395 484.269817 797.742395 484.269817z"  horiz-adv-x="1024" />

    
    <glyph glyph-name="shangsanjiao" unicode="&#58891;" d="M128.555 118.743l0.002-0.004c-5.79-7.081-9.267-16.128-9.267-25.988 0-22.689 18.394-41.084 41.082-41.088l0.083-0.177 703.881 0.182c22.618 0.086 40.928 18.445 40.928 41.083 0 10.762-4.142 20.553-10.912 27.878L544.117 532.322c-7.507 9.838-19.348 16.192-32.678 16.192-12.943 0-24.481-5.991-32.013-15.344l-0.011 0L128.85 119.089c-0.075-0.09-0.151-0.177-0.226-0.267l-0.067-0.079L128.555 118.743z"  horiz-adv-x="1024" />

    
    <glyph glyph-name="iocnshenfenbaoxianxianganquantishi" unicode="&#58892;" d="M477.44717-186.095275C448.799612-166.371606 419.181607-147.888169 389.718874-129.484746 275.710905-58.271498 157.85997 15.382201 101.845841 154.28804 82.048747 203.457185 71.994929 257.867308 71.994929 315.99812L71.994929 592.129484C71.994929 609.292676 82.592197 624.535512 98.391054 630.016531L486.569362 765.241685C494.604654 768.082213 503.377484 768.082213 511.412773 765.241685L899.591083 630.016531C915.38994 624.535512 925.987206 609.292676 925.987206 592.129484L925.987206 315.99812C925.987206 257.867308 915.933389 203.457185 896.136294 154.28804 840.122166 15.382201 722.27123-58.271498 608.224444-129.484746 578.800528-147.888169 549.182523-166.371606 520.534964-186.095275 514.013569-190.576108 506.48291-192.816525 498.991067-192.816525 491.499227-192.816525 483.968568-190.576108 477.44717-186.095275ZM149.63059 563.404139 149.63059 315.99812C149.63059 268.429271 157.665881 224.381079 173.542374 184.973748 219.813228 70.232405 321.865306 6.460543 429.972965-61.072021 453.030756-75.474698 476.205-89.9974 498.991067-105.040199 521.777135-89.9974 544.951379-75.474698 568.009172-61.072021 676.116829 6.460543 778.168908 70.232405 824.439762 184.973748 840.316255 224.381079 848.351544 268.429271 848.351544 315.99812L848.351544 563.404139 498.991067 685.106778 149.63059 563.404139 149.63059 563.404139ZM523.372025 653.380511 523.372025-38.82754C523.372025-38.82754 401.951632 14.096364 305.1707 104.918233 208.389769 195.740099 204.878214 307.276485 204.878214 307.276485L204.878214 548.885063 523.372025 653.380511Z"  horiz-adv-x="1024" />

    
    <glyph glyph-name="twitter" unicode="&#60595;" d="M962.267429 662.820571q-38.253714-56.027429-92.598857-95.451429 0.585143-7.972571 0.585143-23.990857 0-74.313143-21.723429-148.260571t-65.974857-141.970286-105.398857-120.32-147.456-83.456-184.539429-31.158857q-154.843429 0-283.428571 82.870857 19.968-2.267429 44.544-2.267429 128.585143 0 229.156571 78.848-59.977143 1.170286-107.446857 36.864t-65.170286 91.136q18.870857-2.852571 34.889143-2.852571 24.576 0 48.566857 6.290286-64 13.165714-105.984 63.707429t-41.984 117.394286l0 2.267429q38.838857-21.723429 83.456-23.405714-37.741714 25.161143-59.977143 65.682286t-22.308571 87.990857q0 50.322286 25.161143 93.110857 69.12-85.138286 168.301714-136.265143t212.260571-56.832q-4.534857 21.723429-4.534857 42.276571 0 76.580571 53.979429 130.56t130.56 53.979429q80.018286 0 134.875429-58.294857 62.317714 11.995429 117.174857 44.544-21.138286-65.682286-81.115429-101.741714 53.174857 5.705143 106.276571 28.598857z"  horiz-adv-x="1024" />

    
    <glyph glyph-name="sanjiao" unicode="&#58893;" d="M161.66396 536.690724l350.318644 1.068332 352.151385-3.109828c21.406542 0 40.22412-1.158383 46.476521-5.945409 15.095813-11.55722 13.446243-35.162848 0-48.549739L537.873274 72.013519c-7.104815-7.135514-16.587793-10.18599-25.919323-9.727549-9.333576-0.459464-18.786878 2.592035-25.922393 9.727549L113.295346 480.153056c-13.415544 13.386892-14.879895 36.776601 0 48.518017C120.218012 534.130412 132.266419 536.690724 161.66396 536.690724z"  horiz-adv-x="1024" />

    
    <glyph glyph-name="jilu" unicode="&#58909;" d="M784.511046 689.301494l-77.860299 0L706.650747 747.696462 317.34823 747.696462l0-58.394968L239.487931 689.301494c-61.797461 0-97.324606-49.860595-97.324606-97.324606l0-642.346697c0-47.466058 35.527145-97.325629 97.324606-97.325629L784.511046-147.695438c61.797461 0 97.324606 49.860595 97.324606 97.325629L881.835651 591.976888C881.835651 639.440899 846.307484 689.301494 784.511046 689.301494zM550.930149 533.580896l175.184905 0 0-38.929638L550.930149 494.651258 550.930149 533.580896zM356.278891 708.766824l311.441195 0 0-77.860299L356.278891 630.906525 356.278891 708.766824zM764.778632 8.271776 259.163039 8.271776l0 38.683021 505.616616 0L764.779655 8.271776zM765.082554 125.004407 259.125177 125.004407l0 38.645159 505.9584 0L765.083577 125.004407zM765.082554 241.662337 259.125177 241.662337l0 38.683021 505.9584 0L765.083577 241.662337zM765.082554 358.338686 259.125177 358.338686l0 38.683021 505.9584 0L765.083577 358.338686z"  horiz-adv-x="1024" />

    
    <glyph glyph-name="correct" unicode="&#58917;" d="M511.999488 829.25888c-245.955984 0-445.259391-199.35355-445.259391-445.259391 0-245.931424 199.303408-445.259391 445.259391-445.259391 245.905842 0 445.259391 199.327967 445.259391 445.259391C957.259903 629.90533 757.90533 829.25888 511.999488 829.25888zM511.999488-14.401642c-220.021286 0-398.40113 178.354262-398.40113 398.40113 0 219.99468 178.379845 398.375548 398.40113 398.375548s398.40113-178.379845 398.40113-398.375548C910.401642 163.95262 732.020774-14.401642 511.999488-14.401642zM754.375943 534.065446c-15.346538 13.965074-40.311141 13.965074-55.65768 0L449.078374 307.369127l-123.797661 112.439974c-15.397704 13.965074-40.311141 13.965074-55.707822 0-15.346538-13.965074-15.346538-36.602676 0-50.542167l144.46335-131.189009c1.688457-2.660599 3.734048-5.166678 6.242174-7.442513 7.928584-7.213293 18.415437-10.691514 28.800982-10.46127 10.384522-0.231267 20.871374 3.247977 28.800982 10.46127 2.506079 2.276859 4.603859 4.782938 6.291293 7.442513l270.205295 245.419771C769.773647 497.437187 769.773647 520.099349 754.375943 534.065446z"  horiz-adv-x="1024" />

    
    <glyph glyph-name="gou" unicode="&#58942;" d="M1022.706029 639.261685 904.602168 757.418758 433.725774 286.501432 433.948855 286.278351 389.584438 241.908818 119.666962 511.84062 1.507842 393.644661 379.128295 15.983275 379.184577 16.035464 389.61309 5.60695 860.434226 476.529393 860.230588 476.733031Z"  horiz-adv-x="1024" />

    
    <glyph glyph-name="iconfontxia" unicode="&#58904;" d="M32 384c0-265.151 214.848-480 480-480 265.088 0 480 214.849 480 480 0 265.088-214.912 480-480 480C246.848 864 32 649.088 32 384zM928 384c0-229.376-186.624-416-416-416S96 154.624 96 384 282.624 800 512 800 928 613.376 928 384zM512.064 300.224 341.888 470.336c-12.479 12.48-32.768 12.48-45.248 0-12.479-12.479-12.479-32.768 0-45.248l192.769-192.704c12.479-12.479 32.768-12.479 45.248 0l191.616 191.488c6.208 6.271 9.344 14.464 9.344 22.656 0 8.191-3.136 16.319-9.344 22.592-12.48 12.479-32.769 12.479-45.248 0L512.064 300.224z"  horiz-adv-x="1024" />

    
    <glyph glyph-name="edit" unicode="&#58916;" d="M375.638204 153.731072 227.641739 64.282713C214.169984 58.013355 202.048158 70.992029 208.329468 83.585741L297.920775 231.410633 375.638204 153.731072 375.638204 153.731072ZM636.064597 588.131677 733.507543 492.166485 423.850009 182.90559C387.594732 219.146886 337.371806 269.301761 327.095804 279.558213L636.064597 588.131677 636.064597 588.131677ZM733.507543 685.444232C744.196785 696.140638 761.525487 696.140638 772.242282 685.444232L830.289292 627.480155C840.978541 616.783748 840.978541 599.488016 830.289292 588.819106L772.242282 530.827534 676.838009 628.882513 733.507543 685.444232 733.507543 685.444232ZM274.365865 289.897156 155.902574 50.53412C145.957167 23.559373 167.556056-0.583154 194.554666 11.928064L434.208659 130.248472C444.53976 132.255764 454.567815 136.270356 462.5572 144.244545L888.336309 569.516079C909.714801 590.826402 909.714801 625.472861 888.336309 646.81068L791.582106 743.463302C770.176061 764.801122 735.546211 764.801122 714.167719 743.463302L288.388613 318.219262C280.371679 310.217579 276.404535 300.208602 274.365865 289.897156L274.365865 289.897156Z"  horiz-adv-x="1093" />

    
    <glyph glyph-name="resize-small" unicode="&#58886;" d="M381.513 17.1c-2.282-6.273-5.71-9.7-9.701-10.847-5.71-2.855-10.847-1.709-15.994 3.428l-50.817 50.817-138.198-138.187c-7.419-7.419-14.275-7.419-19.985 0l-96.508 96.508c-7.419 5.71-7.419 12.566 0 19.985l138.198 138.187-50.828 50.828c-5.137 5.138-6.283 10.274-3.428 15.984 1.146 4.001 4.574 7.429 10.857 9.711l263.246 45.118c5.137 0 9.138-1.719 12.566-5.71 2.282-2.292 3.428-6.283 3.428-12.566l-42.836-263.256zM642.486 750.892c2.856 6.283 6.284 10.274 9.701 11.42 6.284 2.282 11.42 1.146 15.995-4.001l50.817-50.244 138.196 137.614c7.419 7.429 14.276 7.429 19.986 0l96.507-96.498c7.419-5.71 7.419-12.566 0-19.995l-137.624-138.187 50.256-50.828c5.137-4.564 6.282-9.701 3.991-15.984-1.137-3.429-5.138-6.856-11.42-9.71l-263.246-45.107c-5.138 0-9.14 1.709-12.567 5.71-2.281 2.281-3.428 6.282-3.428 12.565l42.836 263.246zM878.892 253.514c6.282-2.282 10.283-5.71 11.42-9.711 2.29-5.71 1.145-10.847-3.991-15.984l-50.256-50.828 137.624-138.187c7.419-7.419 7.419-14.275 0-19.985l-96.507-96.508c-5.71-7.419-12.567-7.419-19.986 0l-138.196 138.187-50.817-50.817c-4.575-5.137-9.711-6.283-15.995-3.428-3.418 1.146-6.845 4.574-9.701 10.847l-45.118 263.256c0 5.138 1.719 9.139 5.71 12.566 2.282 2.282 6.284 3.418 12.567 3.418l263.246-42.825zM145.108 514.479c-6.283 2.854-9.711 6.282-10.857 9.71-2.855 6.283-1.709 11.42 3.428 15.984l50.828 50.828-138.198 138.187c-7.419 7.429-7.419 14.285 0 19.995l96.508 96.498c5.71 7.429 12.566 7.429 19.985 0l138.198-137.614 50.817 50.244c5.147 5.147 10.284 6.283 15.994 4.001 3.991-1.146 7.419-5.137 9.701-11.42l45.118-263.246c0-5.146-1.709-9.138-5.71-12.565-2.282-2.282-6.283-3.429-12.566-3.429l-263.246 42.826z"  horiz-adv-x="1024" />

    
    <glyph glyph-name="yonghu" unicode="&#58894;" d="M512.224104-21.319306c-77.375252 0-154.751526-0.081864-232.126778 0.045025-26.723641 0.044002-52.43421 4.900613-75.937506 18.372439-35.137265 20.140713-55.116295 50.706869-61.20599 90.454128-4.345981 28.366048-2.047636 56.843636 0.029676 85.208661 2.869351 39.186488 9.591449 77.761038 22.170952 115.085108 10.3006 30.56411 24.777313 58.95881 46.690392 83.018785 26.449395 29.040407 60.021002 42.817178 98.661044 46.334281 11.641131 1.060145 21.200858-1.968841 30.644951-8.175193 16.883529-11.095709 33.608445-22.578228 51.275827-32.3068 37.655621-20.73423 77.983095-32.903388 121.331369-32.41527 46.270836 0.51984 88.802512 14.421454 128.196731 38.241976 13.227256 7.998161 26.359344 16.225543 38.986943 25.125237 11.54801 8.138354 23.545252 10.837836 37.645388 9.131985 32.536021-3.937682 61.679781-15.095813 85.878926-37.527708 19.10922-17.71343 32.42141-39.578414 43.37795-63.001893 14.878872-31.810496 22.701025-65.61951 28.353768-100.030228 5.885034-35.827997 8.046257-71.955822 7.101745-108.197234-0.847298-32.527834-10.060123-62.342884-32.552393-86.857207-19.567661-21.326724-44.029796-34.114982-72.376401-39.089273-11.365862-1.994424-23.02132-3.227508-34.55091-3.269463C666.62259-21.454382 589.423347-21.319306 512.224104-21.319306zM309.606407 587.118094c-1.994424 107.937315 90.564645 202.308659 202.861244 202.233957 111.328551-0.074701 203.311499-93.649913 202.711841-203.866131-0.593518-109.069091-91.724051-201.926966-203.006554-201.914686C400.584468 383.583514 307.190381 477.53428 309.606407 587.118094z"  horiz-adv-x="1024" />

    
    <glyph glyph-name="shizhong" unicode="&#58895;" d="M503.829923 673.900599c40.817638 0 80.381725-7.980765 117.593232-23.720238 35.973306-15.21554 68.293409-37.009915 96.062869-64.779376 27.76946-27.76946 49.563836-60.089563 64.779376-96.062869 15.739473-37.211507 23.720238-76.775594 23.720238-117.593232s-7.980765-80.381725-23.720238-117.593232c-15.21554-35.973306-37.009915-68.293409-64.779376-96.062869-27.76946-27.76946-60.089563-49.564859-96.062869-64.779376-37.211507-15.739473-76.775594-23.720238-117.593232-23.720238s-80.381725 7.980765-117.593232 23.720238c-35.973306 15.21554-68.293409 37.009915-96.062869 64.779376-27.76946 27.76946-49.563836 60.089563-64.779376 96.062869-15.739473 37.211507-23.720238 76.775594-23.720238 117.593232s7.980765 80.381725 23.720238 117.593232c15.21554 35.973306 37.009915 68.293409 64.779376 96.062869 27.76946 27.76946 60.089563 49.563836 96.062869 64.779376C423.448198 665.919834 463.012286 673.900599 503.829923 673.900599M503.829923 735.298971c-200.784956 0-363.554086-162.768107-363.554086-363.554086s162.769131-363.554086 363.554086-363.554086 363.554086 162.769131 363.554086 363.554086S704.615902 735.298971 503.829923 735.298971L503.829923 735.298971zM516.328585 377.253342l-36.839023 0c-6.753821 0-12.279674 5.525853-12.279674 12.279674L467.209888 582.361767c0 6.753821 5.525853 12.279674 12.279674 12.279674l36.839023 0c6.753821 0 12.279674-5.525853 12.279674-12.279674l0-192.82875C528.60826 382.779196 523.082406 377.253342 516.328585 377.253342zM467.209888 365.580488l0 36.839023c0 6.753821 5.525853 12.279674 12.279674 12.279674l192.82875 0c6.753821 0 12.279674-5.525853 12.279674-12.279674l0-36.839023c0-6.753821-5.525853-12.279674-12.279674-12.279674L479.489562 353.300814C472.735741 353.300814 467.209888 358.826668 467.209888 365.580488z"  horiz-adv-x="1024" />

    
    <glyph glyph-name="gugegoogle114" unicode="&#58896;" d="M495.383273 482.071273c0 52.363636-31.278545 133.911273-91.694545 133.911273-18.897455 0-39.284364-9.448727-50.967273-24.064-12.381091-15.266909-16.011636-34.909091-16.011636-53.853091 0-48.733091 28.392727-129.536 90.996364-129.536 18.199273 0 37.841455 8.750545 49.524364 20.386909C493.940364 445.719273 495.383273 468.992 495.383273 482.071273zM1024 384c0 282.763636-229.236364 512-512 512C229.236364 896 0 666.763636 0 384s229.236364-512 512-512C794.763636-128 1024 101.236364 1024 384zM669.556364 482.443636l39.377455 0 0-78.754909 78.754909 0 0-39.377455-78.754909 0 0-78.754909-39.377455 0 0 78.754909-78.754909 0 0 39.377455 78.754909 0L669.556364 482.443636zM236.311273 189.486545c0 26.205091 13.079273 63.301818 56.040727 88.808727 45.102545 27.648 106.263273 31.278545 138.984727 33.466182-10.193455 13.125818-21.829818 26.949818-21.829818 49.477818 0 12.381091 3.630545 19.642182 7.261091 28.392727-8.005818-0.698182-16.011636-1.442909-23.319273-1.442909-77.125818 0-120.785455 57.530182-120.785455 114.269091 0 33.466182 15.266909 70.609455 46.592 97.512727C360.773818 634.181818 410.251636 640 449.536 640l149.922909 0-46.592-26.158545-45.102545 0 0 0c16.709818-13.824 51.665455-42.961455 51.665455-98.257455 0-53.853091-30.580364-79.313455-61.114182-103.330909-9.448727-9.448727-20.386909-19.642182-20.386909-35.653818s10.938182-24.762182 18.897455-31.278545l26.205091-20.386909c32.023273-26.903273 61.114182-51.665455 61.114182-101.934545 0-68.375273-66.234182-137.541818-191.394909-137.541818C287.278545 85.410909 236.311273 135.633455 236.311273 189.486545zM456.098909 290.676364C450.280727 291.374545 446.650182 291.374545 439.389091 291.374545c-6.562909 0-45.847273-1.442909-76.427636-11.682909-16.011636-5.818182-62.603636-23.272727-62.603636-74.938182 0-51.665455 50.222545-88.762182 128.093091-88.762182 69.864727 0 106.961455 33.466182 106.961455 78.568727C535.412364 231.703273 511.441455 251.345455 456.098909 290.676364z"  horiz-adv-x="1024" />

    
    <glyph glyph-name="tuitetwitter43" unicode="&#58897;" d="M1024 384c0 282.763636-229.236364 512-512 512C229.236364 896 0 666.763636 0 384s229.236364-512 512-512C794.763636-128 1024 101.236364 1024 384zM236.311273 202.053818c8.843636-1.117091 17.873455-1.722182 26.996364-1.722182 53.015273-0.093091 101.794909 19.037091 140.474182 51.153455-49.524364 1.163636-91.275636 36.165818-105.658182 84.200727 6.888727-1.442909 14.010182-2.280727 21.271273-2.327273 10.333091-0.046545 20.293818 1.349818 29.789091 4.049455-51.758545 11.450182-90.763636 60.555636-90.763636 119.063273 0 0.512 0 1.024 0 1.536 15.266909-9.216 32.674909-14.801455 51.246545-15.639273C279.365818 464.290909 259.397818 501.527273 259.397818 543.418182c0 22.155636 5.585455 42.821818 15.313455 60.509091 55.808-73.774545 139.170909-122.740364 233.146182-128.837818-1.954909 8.797091-2.932364 17.966545-2.932364 27.322182 0 66.141091 50.641455 118.923636 113.105455 117.899636 32.535273-0.558545 61.952-15.499636 82.571636-38.958545 25.786182 4.933818 49.989818 14.429091 71.819636 27.694545-8.424727-27.601455-26.391273-50.594909-49.757091-64.977455 22.900364 2.56 44.683636 8.610909 64.977455 17.780364-15.173818-23.598545-34.350545-44.218182-56.459636-60.695273 0.232727-5.12 0.325818-10.24 0.325818-15.36 0-157.044364-113.803636-338.152727-321.861818-338.059636C345.832727 147.688727 286.347636 167.703273 236.311273 202.053818z"  horiz-adv-x="1024" />

    
    <glyph glyph-name="dizhi" unicode="&#58910;" d="M510.645654 609.022986c-62.210877 0-112.526843-50.138934-112.526843-112.048959 0-61.910025 50.314942-112.107287 112.526843-112.107287 62.147432 0 112.527866 50.256614 112.527866 112.107287C623.172497 558.825724 572.793086 609.022986 510.645654 609.022986L510.645654 609.022986 510.645654 609.022986 510.645654 609.022986zM510.645654 833.180256c-186.509834 0-337.700255-150.593833-337.700255-336.205205 0-185.730075 337.700255-560.361451 337.700255-560.361451s337.701279 374.689704 337.701279 560.361451C848.345909 682.586422 697.210747 833.180256 510.645654 833.180256L510.645654 833.180256 510.645654 833.180256 510.645654 833.180256zM510.645654 272.817782c-124.298957 0-225.172389 100.394525-225.172389 224.156246s100.874455 224.157269 225.172389 224.157269c124.358309 0 225.173412-100.395548 225.173412-224.157269S635.003963 272.817782 510.645654 272.817782L510.645654 272.817782 510.645654 272.817782 510.645654 272.817782zM510.645654 272.817782"  horiz-adv-x="1024" />

    
    <glyph glyph-name="login" unicode="&#58911;" d="M512 832C262.4 832 64 633.6 64 384c0-249.6 198.4-448 448-448s448 198.4 448 448C960 633.6 761.6 832 512 832zM512 652.8c70.4 0 128-57.6 128-128 0-70.4-57.6-128-128-128s-128 57.6-128 128C384 595.2 441.6 652.8 512 652.8zM787.2 134.4C716.8 64 620.8 12.8 512 12.8c-108.8 0-204.8 44.8-275.2 121.6-19.2 19.2-19.2 51.2 0 70.4 70.4 76.8 166.4 128 275.2 128 108.8 0 204.8-51.2 275.2-128C806.4 185.6 806.4 153.6 787.2 134.4z"  horiz-adv-x="1024" />

    
    <glyph glyph-name="money1" unicode="&#58941;" d="M607.475 396.634c-16.035 12.147-37.414 18.464-64.139 18.464h-83.575v-147.23h83.575c27.211 0 48.59 6.802 64.625 20.407 15.549 13.605 23.81 31.097 23.81 52.479v0.972c0 24.297-8.26 42.758-24.297 54.908zM844.115 514.222c-24.297 25.753-50.534 48.59-76.773 68.511-3.888 2.915-6.802 4.86-10.206 7.773 48.59 16.522 82.118 56.365 82.118 103.498 0 63.654-60.252 112.244-131.679 112.244-16.522 0-31.585-2.915-45.189-8.26-6.317-2.428-11.177-4.86-15.063-7.287-2.428-0.972-7.773 0-9.232 1.945v0c-5.345 8.26-13.605 18.464-25.753 28.669-22.838 19.921-49.563 32.070-80.66 32.070-30.612 0-57.823-12.147-80.66-32.070-11.662-10.206-19.921-19.921-25.266-28.182v0c-1.945-2.428-7.287-3.888-9.232-2.915-3.888 2.428-8.745 4.86-15.549 7.287-13.605 5.345-28.669 8.26-45.189 8.26-71.428 0-131.679-48.59-131.679-112.244 0-40.33 24.78-75.315 62.196-94.753-3.888-2.428-7.773-5.345-12.147-8.745-26.238-19.437-51.99-42.273-76.288-68.027-70.455-74.343-113.7-159.863-113.7-254.613 0-263.36 196.305-388.723 432.941-388.723 99.125 0 195.82 19.921 274.537 66.57 106.413 63.168 167.151 169.58 167.151 322.154-0.485 88.921-43.73 172.011-114.672 246.838zM704.172 342.21c0-22.838-4.372-42.758-12.634-60.252-8.745-17.493-20.407-31.585-34.986-43.246-14.578-11.662-32.070-20.407-51.99-26.724-19.921-5.831-40.817-9.232-63.654-9.232h-81.148v-131.194h-70.942v407.674h160.835c23.81 0 45.189-3.401 64.139-9.717 19.437-6.317 35.472-15.549 49.076-27.696 13.605-12.147 23.81-26.238 30.612-43.246 7.287-16.522 10.69-35.472 10.69-55.879v-0.485z"  horiz-adv-x="1024" />

    
    <glyph glyph-name="quanping" unicode="&#58918;" d="M940.691456 3.615744c3.690496-28.24704-8.928256-41.478144-37.858304-39.670784l-227.140608 25.244672c-17.855488 1.803264-29.246464 6.759424-34.167808 14.877696-4.923392 8.118272-2.151424 17.282048 8.315904 27.503616 6.767616 6.00576 15.079424 14.27456 24.92416 24.798208 9.85088 10.519552 18.162688 19.080192 24.935424 25.69728 6.772736 7.216128 8.928256 13.828096 6.46144 19.837952-2.465792 6.01088-7.384064 12.929024-14.773248 20.74112-17.23904 16.228352-32.930816 30.953472-47.092736 44.183552-14.1568 13.220864-29.852672 28.553216-47.087616 45.986816-3.693568 3.600384-7.389184 7.51616-11.083776 11.718656-3.693568 4.21376-6.46144 8.86784-8.310784 13.978624-1.845248 5.110784-2.151424 10.522624-0.922624 16.228352 1.232896 5.712896 5.233664 11.87328 12.0064 18.487296 3.689472 3.6096 6.767616 6.7584 9.229312 9.468928 2.466816 2.706432 4.932608 5.110784 7.389184 7.21408 2.466816 2.103296 5.078016 4.508672 7.849984 7.211008 2.771968 2.701312 6.311936 6.46144 10.622976 11.276288 12.312576 12.020736 23.696384 17.13664 34.163712 15.32416 10.458112-1.79712 21.85216-8.717312 34.159616-20.736 12.312576-12.020736 24.92928-24.196096 37.858304-36.521984 12.92288-12.320768 27.396096-26.294272 43.39712-41.929728 11.695104-10.819584 21.701632-18.330624 30.009344-22.539264 8.310784-4.211712 16.467968-2.405376 24.467456 5.408768 5.53984 5.41184 12.468224 11.869184 20.779008 19.386368 8.307712 7.51616 15.546368 14.278656 21.696512 20.288512 10.463232 10.218496 19.852288 14.129152 28.163072 11.7248 8.310784-2.405376 13.389824-11.42272 15.229952-27.047936L940.691456 3.615744 940.691456 3.615744 940.691456 3.615744zM81.975296 766.462976c-1.850368 15.630336 0.155648 26.450944 5.999616 32.46592 5.851136 6.009856 16.161792 8.414208 30.93504 7.209984l227.140608-25.249792c18.47296-1.80224 30.012416-6.762496 34.629632-14.877696 4.617216-8.113152 1.690624-17.281024-8.767488-27.49952-6.160384-6.009856-13.705216-13.827072-22.628352-23.447552-8.923136-9.619456-16.774144-17.732608-23.54176-24.341504-7.389184-7.2192-9.85088-13.827072-7.389184-19.843072 2.461696-6.009856 7.69536-12.92288 15.699968-20.740096 8.001536-8.416256 15.541248-15.775744 22.62016-22.086656 7.078912-6.311936 14.006272-12.622848 20.773888-18.93888 6.772736-6.310912 13.850624-13.075456 21.235712-20.284416l23.089152-22.54848c3.693568-3.600384 7.233536-7.812096 10.61376-12.618752 3.388416-4.814848 5.854208-9.920512 7.38816-15.332352 1.540096-5.41184 1.384448-11.116544-0.4608-17.13152-1.850368-6.014976-5.846016-12.020736-12.00128-18.035712l-10.157056-9.920512c-2.465792-2.405376-4.77696-4.804608-6.92736-7.209984-2.15552-2.4064-4.767744-4.805632-7.851008-7.216128l-10.156032-10.819584c-12.312576-12.020736-22.930432-16.533504-31.853568-13.52704-8.923136 3.011584-19.546112 10.519552-31.857664 22.54336-12.312576 12.020736-24.00768 23.297024-35.08224 33.816576-11.083776 10.518528-24.623104 23.59296-40.629248 39.222272-11.083776 10.825728-20.929536 18.336768-29.54752 22.54336-8.61696 4.207616-16.927744 2.404352-24.9344-5.407744-5.53472-6.009856-13.229056-13.376512-23.085056-22.091776-9.84576-8.716288-17.847296-16.08704-24.00256-22.091776-10.466304-10.221568-19.69664-14.129152-27.701248-11.722752-8.001536 2.405376-12.923904 11.4176-14.773248 27.047936L81.975296 766.462976 81.975296 766.462976 81.975296 766.462976zM900.988928 807.042048c16.006144 1.80224 27.080704-0.150528 33.242112-5.859328 6.155264-5.712896 8.61696-16.08704 7.384064-31.10912l-25.851904-221.822976c-1.844224-17.436672-6.923264-28.553216-15.240192-33.368064-8.306688-4.804608-17.695744-1.80224-28.157952 9.02144-6.155264 6.009856-14.1568 13.376512-24.006656 22.091776-9.85088 8.716288-18.162688 16.37888-24.930304 22.995968-7.389184 6.606848-14.16192 8.866816-20.312064 6.7584-6.161408-2.0992-13.2352-7.063552-21.239808-14.871552-16.618496-16.232448-31.241216-30.964736-43.859968-44.188672-12.616704-13.225984-27.541504-28.25216-44.776448-45.082624-3.693568-3.6096-8.004608-7.063552-12.93312-10.372096-4.923392-3.309568-10.157056-5.709824-15.695872-7.216128-5.53984-1.501184-11.384832-1.350656-17.54624 0.451584-6.151168 1.80736-12.307456 6.014976-18.46272 12.627968-3.693568 3.6096-6.923264 6.611968-9.700352 9.017344-2.767872 2.405376-5.384192 4.809728-7.844864 7.21408-2.461696 2.40128-5.078016 4.805632-7.845888 7.216128-2.771968 2.405376-6.310912 6.004736-10.622976 10.819584-12.311552 12.020736-17.23392 22.539264-14.768128 31.557632 2.456576 9.017344 10.150912 19.534848 23.079936 31.555584l35.091456 36.074496c11.691008 12.025856 25.546752 25.847808 41.547776 41.473024 11.700224 10.825728 19.69664 20.445184 24.0128 28.859392 4.301824 8.416256 2.1504 16.228352-6.47168 23.442432-5.53472 5.408768-12.618752 12.778496-21.235712 22.091776-8.617984 9.319424-16.001024 16.986112-22.158336 22.990848-10.466304 10.227712-14.468096 19.239936-12.00128 27.052032 2.456576 7.81824 11.691008 12.622848 27.698176 14.425088L900.988928 807.042048 900.988928 807.042048 900.988928 807.042048zM118.910976-30.646272c-15.39072-1.205248-26.318848 1.05472-32.775168 6.767616-6.47168 5.70368-9.08288 15.771648-7.851008 30.204928l25.851904 221.81376c1.844224 18.033664 6.92736 29.310976 15.235072 33.819648 8.305664 4.503552 17.695744 1.646592 28.157952-8.569856 6.160384-6.01088 14.621696-13.822976 25.391104-23.442432 10.7776-9.61536 19.546112-17.738752 26.318848-24.346624 7.389184-7.211008 13.544448-10.369024 18.46784-9.464832 4.923392 0.893952 11.078656 5.256192 18.46784 13.065216 8.006656 7.817216 15.690752 15.483904 23.079936 23.000064 7.389184 7.51616 14.778368 14.872576 22.163456 22.086656 7.384064 7.21408 14.927872 14.72512 22.623232 22.54848 7.69536 7.812096 15.850496 15.921152 24.469504 24.346624 3.693568 3.60448 7.694336 7.21408 12.0064 10.819584 4.30592 3.60448 9.078784 6.306816 14.307328 8.114176 5.22752 1.80736 10.77248 1.952768 16.617472 0.451584 5.855232-1.502208 12.162048-5.563392 18.93376-12.171264 3.695616-3.6096 6.923264-6.611968 9.695232-9.02144 2.771968-2.40128 5.389312-4.810752 7.845888-7.211008l7.389184-8.118272 11.083776-9.920512c12.307456-12.020736 17.695744-22.990848 16.156672-32.912384-1.543168-9.915392-8.777728-21.188608-21.701632-33.815552-11.691008-11.418624-24.001536-23.59296-36.93056-36.521984-12.928-12.918784-27.390976-27.198464-43.39712-42.82368-11.0848-10.824704-18.008064-19.685376-20.774912-26.600448-2.770944-6.913024-0.155648-14.278656 7.845888-22.096896 6.160384-5.402624 13.079552-12.16512 20.773888-20.288512 7.69536-8.114176 14.62784-15.168512 20.779008-21.188608 10.467328-10.218496 14.317568-19.239936 11.544576-27.053056-2.770944-7.812096-12.16-12.621824-28.168192-14.419968L118.910976-30.646272 118.910976-30.646272 118.910976-30.646272zM118.910976-30.646272"  horiz-adv-x="1024" />

    
    <glyph glyph-name="change" unicode="&#58912;" d="M914.285714 91.428571 914.285714 18.285714 841.142857 18.285714 841.142857 91.428571 109.714286 91.428571 36.571429 91.428571 36.571429 164.571429 36.571429 384 109.714286 384 109.714286 164.571429 841.142857 164.571429 841.142857 237.714286 914.285714 237.714286 914.285714 164.571429 987.428571 164.571429 987.428571 91.428571 914.285714 91.428571ZM768-54.857143 768 18.285714 841.142857 18.285714 841.142857-54.857143 768-54.857143ZM694.857143-128 694.857143-54.857143 768-54.857143 768-128 694.857143-128ZM768 310.857143 841.142857 310.857143 841.142857 237.714286 768 237.714286 768 310.857143ZM694.857143 384 768 384 768 310.857143 694.857143 310.857143 694.857143 384ZM914.285714 603.428571 182.857143 603.428571 182.857143 530.285714 109.714286 530.285714 109.714286 603.428571 36.571429 603.428571 36.571429 676.571429 109.714286 676.571429 109.714286 749.714286 182.857143 749.714286 182.857143 676.571429 914.285714 676.571429 987.428571 676.571429 987.428571 603.428571 987.428571 384 914.285714 384 914.285714 603.428571ZM256 457.142857 182.857143 457.142857 182.857143 530.285714 256 530.285714 256 457.142857ZM329.142857 384 256 384 256 457.142857 329.142857 457.142857 329.142857 384ZM256 822.857143 256 749.714286 182.857143 749.714286 182.857143 822.857143 256 822.857143ZM329.142857 896 329.142857 822.857143 256 822.857143 256 896 329.142857 896Z"  horiz-adv-x="1024" />

    
    <glyph glyph-name="ios" unicode="&#58949;" d="M836.608 220.16q41.984-59.392 96.256-76.8-23.552-72.704-74.752-151.552-78.848-118.784-155.648-118.784-28.672 0-84.992 19.456-52.224 19.456-91.136 19.456t-86.016-20.48q-49.152-19.456-80.896-19.456-92.16 0-181.248 156.672-89.088 154.624-89.088 304.128 0 138.24 67.584 226.304 69.632 88.064 172.032 88.064 22.528 0 50.176-5.632t57.344-20.992q31.744-17.408 52.224-24.064t31.744-6.656q13.312 0 40.96 6.144t55.296 22.528q29.696 16.384 51.2 24.576t44.032 8.192q71.68 0 129.024-38.912 30.72-20.48 62.464-60.416-47.104-40.96-68.608-71.68-39.936-57.344-39.936-124.928 0-74.752 41.984-135.168zM630.784 698.368q-35.84-33.792-65.536-44.032-10.24-3.072-26.112-5.632t-36.352-4.608q1.024 90.112 47.104 155.648t151.552 90.112q2.048-10.24 3.072-14.336v-11.264q0-36.864-17.408-82.944-18.432-45.056-56.32-82.944z"  horiz-adv-x="1024" />

    
    <glyph glyph-name="icon103youjiandakai" unicode="&#58913;" d="M102.469278 512.219243c19.61371-17.09433 45.288462-27.499307 73.30454-27.499307l673.398924 0c31.04097 0 59.056024 12.671601 79.337953 33.029254L507.333212 831.042569 102.469278 512.219243zM960.278211 436.29504c0 17.359366-3.891633 33.773198-10.958586 48.423873L667.255505 274.912489l274.556123-283.072077c11.715833 17.647939 18.467607 38.835494 18.467607 61.612243L960.279235 436.29504 960.278211 436.29504zM78.547449 491.926058c-9.448186-16.390295-14.826684-35.410488-14.826684-55.629995l0-382.842385c0-25.824155 8.729825-49.608861 23.480784-68.477604l275.03503 283.514145L78.547449 491.926058zM637.385197 252.692419l-119.875205-89.13918c-3.301186-2.418073-7.130398-3.677762-10.996448-3.677762-4.082992 0-8.100492 1.373277-11.402701 3.967358l-103.750969 81.718163L114.32428-39.99362c17.497513-11.526521 38.458917-18.215874 60.97063-18.215874L848.69281-58.209494c25.609261 0 49.128931 8.591679 67.961858 23.078625L637.385197 252.692419z"  horiz-adv-x="1024" />

    
    <glyph glyph-name="jiantou-copy" unicode="&#58898;" d="M523.242 765.303c12.476-2.127 24.42-8.065 33.936-17.816l345.018-353.55c23.938-24.53 23.457-63.821-1.076-87.757l-43.53-42.474c-24.532-23.936-63.825-23.455-87.763 1.075l-164.047 168.105v-369.284c0-34.279-27.789-62.068-62.068-62.068h-71.998c-34.279 0-62.068 27.789-62.068 62.068v360.695l-155.463-159.32c-23.94-24.534-63.237-25.016-87.77-1.075l-43.534 42.481c-24.534 23.94-25.016 63.237-1.075 87.77l345.044 353.601c15.184 15.559 36.541 21.43 56.394 17.547z"  horiz-adv-x="1024" />

    
    <glyph glyph-name="xiangyou1" unicode="&#59253;" d="M761.055557 363.871953c0.512619 0.992555 1.343475 1.823411 1.792447 2.848649 8.800538 18.304636 5.919204 40.703346-9.664077 55.424808L399.935923 756.256202c-19.264507 18.208305-49.631179 17.344765-67.872168-1.888778-18.208305-19.264507-17.375729-49.631179 1.888778-67.872168l316.960409-299.839269L335.199677 82.368284c-19.071845-18.399247-19.648112-48.767639-1.247144-67.872168 9.407768-9.791372 21.984142-14.688778 34.560516-14.688778 12.000108 0 24.000215 4.479398 33.311652 13.439914l350.048434 337.375729c0.672598 0.672598 0.927187 1.599785 1.599785 2.303346 0.512619 0.479935 1.056202 0.832576 1.567101 1.343475C757.759656 357.120172 759.199462 360.608735 761.055557 363.871953z"  horiz-adv-x="1024" />

    
    <glyph glyph-name="xiangzuo1" unicode="&#59257;" d="M671.968176-15.99957c-12.287381 0-24.576482 4.67206-33.951566 14.047144L286.048434 350.015751c-18.751888 18.719204-18.751888 49.12028 0 67.872168L638.016611 769.888778c18.751888 18.751888 49.12028 18.751888 67.872168 0 18.751888-18.719204 18.751888-49.12028 0-67.872168l-318.016611-318.047574L705.888778 65.952426c18.751888-18.751888 18.751888-49.12028 0-67.872168C696.544658-11.32751 684.255557-15.99957 671.968176-15.99957z"  horiz-adv-x="1024" />

    
    <glyph glyph-name="rocket" unicode="&#58899;" d="M789.411 616.237c0 12.485-4.37 23.099-13.11 31.839s-19.353 13.11-31.839 13.11c-12.485 0-23.099-4.37-31.839-13.11-8.74-8.74-13.11-19.353-13.11-31.839 0-12.485 4.37-23.099 13.11-31.839 8.74-8.74 19.353-13.11 31.839-13.11 12.485 0 23.099 4.37 31.839 13.11 8.74 8.74 13.11 19.353 13.11 31.839v0zM894.292 751.085c0-77.725-11.783-144.914-35.35-201.568-23.567-56.655-63.132-112.918-118.693-168.793-25.284-24.972-55.718-52.441-91.302-82.406l-9.364-177.455c-0.624-4.994-3.121-9.052-7.491-12.174l-179.796-104.881c-2.185-1.249-4.683-1.873-7.491-1.873-3.746 0-7.335 1.405-10.769 4.214l-29.966 29.966c-4.058 4.37-5.307 9.364-3.746 14.983l39.798 129.229-131.569 131.569-129.229-39.798c-0.937-0.313-2.341-0.468-4.214-0.468-4.37 0-7.959 1.405-10.769 4.214l-29.966 29.966c-5.307 5.931-6.086 12.018-2.341 18.26l104.881 179.796c3.121 4.37 7.18 6.867 12.174 7.491l177.455 9.364c29.966 35.585 57.435 66.019 82.406 91.302 58.684 58.371 114.558 98.638 167.622 120.8 53.065 22.162 120.333 33.244 201.803 33.244 4.37 0 8.116-1.483 11.237-4.448 3.121-2.965 4.683-6.477 4.683-10.534v0z"  horiz-adv-x="1024" />

    
    <glyph glyph-name="userbg" unicode="&#58914;" d="M510.5423 833.634604c-247.514233 0-448.15695-200.64374-448.15695-448.15695 0-247.521396 200.641693-448.163089 448.15695-448.163089 247.520373 0 448.163089 200.641693 448.163089 448.163089C958.70539 632.990864 758.062674 833.634604 510.5423 833.634604L510.5423 833.634604zM510.5423 670.504246c80.870866 0 146.437164-65.567321 146.437164-146.438187 0-80.891332-65.565275-146.437164-146.437164-146.437164S364.10616 443.175751 364.10616 524.066059C364.10616 604.937948 429.671435 670.504246 510.5423 670.504246L510.5423 670.504246zM766.217401 91.818451c-69.731154-65.36573-160.530137-101.349269-255.6751-101.349269-95.16236 0-185.937806 35.983539-255.627005 101.329826-5.308913 4.974291-8.067746 12.750395-7.05672 19.826558 18.615986 128.446417 110.447485 153.540955 262.684748 153.540955 152.263869 0 244.047272-25.094538 262.670421-153.540955C774.243191 104.549404 771.484358 96.7733 766.217401 91.818451L766.217401 91.818451zM766.217401 91.818451"  horiz-adv-x="1024" />

    
    <glyph glyph-name="jiantouyou" unicode="&#58915;" d="M939.862 401.393 739.026 602.226c-6.296 6.299-16.507 6.299-22.805 0l-22.803-22.805c-6.301-6.296-6.301-16.509 0-22.805l141.36-141.36L96.384 415.256c-8.837 0-15.998-7.163-15.998-16l0-32.002c0-8.835 7.162-15.998 15.998-15.998l738.747 0L693.874 210.001c-6.245-6.246-6.245-16.378 0-22.626l22.63-22.629c6.248-6.246 16.381-6.246 22.629 0l199.763 199.765c4.7 4.7 5.862 11.596 3.492 17.385C945.977 388.068 945.147 396.105 939.862 401.393z"  horiz-adv-x="1024" />

    
    <glyph glyph-name="xiasanjiao" unicode="&#58925;" d="M362.231 105.583v499.661l298.81-250.227-298.81-249.434zM362.231 105.583z"  horiz-adv-x="1000" />

    
    <glyph glyph-name="03" unicode="&#59059;" d="M465.042525 485.085256c-32.80822 22.132066-79.33386 10.518564-103.913675-25.934672-24.583908-36.452213-17.916045-83.941807 14.892175-106.062618 32.80822-22.127973 79.33079-10.507308 103.910605 25.935696C504.514515 415.478945 497.847675 462.973656 465.042525 485.085256L465.042525 485.085256zM453.531354 396.831236c-14.749936-21.872147-41.479717-29.629831-59.71094-17.340947-18.225083 12.285814-21.041222 39.977503-6.291287 61.850673 14.745842 21.872147 41.481763 29.639041 59.706847 17.35425C465.461057 446.396095 468.281289 418.704406 453.531354 396.831236L453.531354 396.831236zM859.156628 450.419735c-7.448646 31.493272-58.557674 49.259914-133.695978 52.123125-11.05887 20.147876-24.835641 38.59604-40.86164 54.826699 0.013303 0.010233 0.022513 0.020466 0.036839 0.030699-0.644683 0.789992-1.378393 1.481747-2.169409 2.105964-44.578288 44.070728-105.850793 71.287603-173.48417 71.287603-133.24777 0-241.812371-105.607246-246.605537-237.685377l-0.01228 0.032746c-86.519516-41.315988-104.123452-76.745918-97.033987-106.74107 7.907087-33.44267 64.946174-51.471278 147.804301-52.55189 45.113477-58.754149 116.052133-96.641037 195.847503-96.641037 120.470769 0 220.767056 86.339414 242.435565 200.5015 73.058946 37.942147 115.608018 79.407538 107.7347 112.711038L859.156628 450.419735zM661.57155 528.603399c27.649733-29.167297 47.03013-66.25089 54.374398-107.504456-35.21299 8.275477-61.371766 39.104623-61.371766 75.876108 0 11.304464 2.511193 21.991874 6.996344 31.625278L661.570527 528.603399zM207.354582 301.735391c-3.448542 14.58723 24.121374 28.362978 57.461713 46.285163 3.926426-26.881231 12.181437-52.358485 24.044626-75.694983C241.720274 274.709875 211.400734 284.623665 207.354582 301.735391L207.354582 301.735391zM508.983293 173.769928c-7.880481 0-15.656585 0.448208-23.313985 1.291412 3.910053 13.650905 10.454096 19.371186 32.456203 19.371186 14.198374 0 28.586059-5.979178 39.555901-14.982226C542.05041 175.742862 525.749142 173.769928 508.983293 173.769928L508.983293 173.769928zM590.083379 189.991378c-15.59007 23.795962-47.096644 38.628786-71.958892 38.628786-33.452903 0-63.48694-14.31503-71.583338-45.418422-32.756031 10.175757-62.075801 28.15013-85.799108 51.750641 53.150524 2.982938 113.584941 11.787464 176.733167 26.712385 63.560618 15.025205 121.881908 34.370809 170.939207 55.661717-19.241226-57.577347-62.723553-104.060007-118.332059-127.331014L590.082356 189.991378zM718.192106 363.216651c-46.851051-22.444175-109.153002-44.313252-181.786253-61.48126-76.636425-18.111496-148.478659-27.883047-205.39802-29.67588-20.427238 32.413224-32.253588 70.796416-32.253588 111.939465 0 116.106368 94.126774 210.229049 210.229049 210.229049 49.634444 0 95.246271-17.21508 131.210367-45.983287-9.145287-14.142092-12.384052-30.453592-12.384052-51.272757 0-50.375318 39.146579-92.276636 91.110067-101.877295 0.193405-3.673669 0.292666-7.374968 0.292666-11.098779C719.212342 376.982166 718.863395 370.05336 718.192106 363.216651L718.192106 363.216651zM755.764839 383.290849c0 0.23536 0.007163 0.471744 0.007163 0.707105 0 28.579919-4.874007 56.012711-13.81361 81.540108 42.243103-2.595105 66.825988-11.573593 68.657706-17.550725C815.9465 430.526663 795.569404 407.279193 755.764839 383.290849L755.764839 383.290849zM755.764839 383.290849"  horiz-adv-x="1024" />

    
    <glyph glyph-name="fuzhi" unicode="&#58930;" d="M442.656167 384.810459 442.656167 577.166441 378.537847 641.285784 378.537847 320.691115 699.131493 320.691115 635.014196 384.810459ZM378.537847 577.166441 635.014196 320.691115 635.014196 128.33104 699.131493 128.33104 699.131493 347.240795 405.086503 641.285784 378.537847 641.285784 378.537847 577.166441ZM635.014196 0.0944 186.180841 0.0944 186.180841 577.166441 314.418504 577.166441 314.418504 641.285784 122.061498 641.285784 122.061498-64.024943 699.131493-64.024943 699.131493 64.21272 635.014196 64.21272ZM891.489522 603.71612 661.561829 833.64279 378.537847 833.64279 378.537847 705.405127 442.656167 705.405127 442.656167 769.523447 635.014196 769.523447 827.370179 577.166441 827.370179 192.449359 763.250836 192.449359 763.250836 128.33104 891.489522 128.33104ZM635.014196 128.33104l64.117296 0 0-64.11832-64.117296 0 0 64.11832ZM314.418504 641.285784l64.119343 0 0-64.119343-64.119343 0 0 64.119343ZM699.131493 641.285784 699.131493 769.523447 635.014196 833.64279 635.014196 577.166441 891.489522 577.166441 827.370179 641.285784ZM250.299161 513.048121l64.119343 0 0-64.119343-64.119343 0 0 64.119343ZM250.299161 384.810459l64.119343 0 0-64.119343-64.119343 0 0 64.119343ZM250.299161 256.569726l320.594669 0 0-64.119343-320.594669 0 0 64.119343ZM250.299161 128.33104l320.594669 0 0-64.11832-320.594669 0 0 64.11832Z"  horiz-adv-x="1024" />

    
    <glyph glyph-name="mobi-copy" unicode="&#58926;" d="M710.707 874.197h-397.043c-54.816 0-99.261-44.444-99.261-99.261v-694.85c0-54.816 44.444-99.261 99.261-99.261h397.044c54.815 0 99.261 44.444 99.261 99.261v694.85c-0.001 54.816-44.445 99.261-99.262 99.261zM412.925 824.567h198.521v-49.63h-198.521v49.63zM512.186 30.455c-27.408 0-49.63 22.295-49.63 49.63 0 27.435 22.222 49.632 49.63 49.632s49.63-22.198 49.63-49.632c0-27.336-22.222-49.63-49.63-49.63zM760.337 179.348h-496.304v545.958h496.305v-545.958z"  horiz-adv-x="1024" />

    
    <glyph glyph-name="weituotubiao" unicode="&#58919;" d="M523.678271 789.871148l408.944378-304.864346 119.65106 0-241.760704 186.032813L810.513005 773.070828l-64.742697 0 0-50.810724-3.687875 2.868347L523.678271 896 78.264906 550.159264c-18.029612-14.341737-78.264906-65.152461-78.264906-65.152461l130.714686 0L523.678271 789.871148zM404.846739 196.942777l0 20.078431c0 65.562225 29.503001 163.905562 108.587435 168.003201 49.581433 2.458583 90.557823-47.122849 99.982393-94.655462 44.254502 21.307723 69.2501 35.64946 101.211685 58.186475 41.386154 29.093237 104.489796 45.893557 187.671869 49.991196L902.30012 441.162065l-379.031613 278.639456-363.870348-278.639456 0-280.688275c0-31.142057 12.292917-69.659864 32.371349-90.557823 13.931973-3.687875 117.192477-31.551821 131.943978-34.010404 37.698279-6.146459 101.621449-2.04882 101.621449-2.04882l0 18.439376c-27.044418-7.785514-52.859544-12.702681-73.757503-12.702681-24.17607 0-46.303321 6.965986-55.727891 20.078431-6.146459 9.014806-16.390556 31.551821-2.04882 53.679072C310.60104 139.57583 329.040416 160.883553 404.846739 196.942777zM902.30012 353.882353c-77.855142-3.687875-136.041617-18.84914-173.739896-45.483794-33.60064-23.766307-76.216086-46.303321-121.69988-68.430572-30.732293-14.751501-63.103641-29.503001-95.065226-43.844738-28.683473-13.112445-58.596238-26.634654-86.460184-39.747099-55.727891-27.044418-101.211685-53.269308-106.948379-73.347739-0.819528-3.278111-0.409764-6.146459 2.04882-9.42457 5.736695-8.195278 20.078431-10.244098 31.142057-10.244098 20.078431 0 45.893557 5.326931 73.757503 13.522209 65.562225 19.668667 149.973589 60.235294 188.081633 79.494198l0-3.278111c1.639056 2.04882 3.687875 3.687875 4.917167 5.736695 2.458583 1.229292 4.507403 2.458583 6.556222 3.278111l0-40.976391c-41.386154-43.844738-139.319728-129.485394-221.682273-129.485394l-1.229292 0c-50.40096 0.409764-113.094838 17.210084-173.330132 33.190876-55.727891 14.751501-108.177671 28.683473-145.466186 28.683473-38.108043 0-45.483794-14.751501-47.532613-27.863946-2.04882-11.883153 7.785514-36.878752 95.884754-70.479392 59.415766-22.537015 133.173269-41.386154 204.472189-58.596238 67.201281-15.980792 136.451381-24.585834 200.37455-24.585834 74.986795 0 138.5002 11.063625 184.393758 32.371349 32.371349 14.751501 78.264906 43.844738 127.436575 74.577031 56.957183 35.64946 115.553421 72.528211 155.710284 88.918768 69.659864 28.683473 137.680672 45.893557 159.807923 50.810724l38.927571 206.930772c-35.64946 7.37575-149.154062 28.683473-261.429372 28.683473C927.705482 354.701881 915.002801 354.292117 902.30012 353.882353zM1221.138521 100.730991l37.733437 218.871702 111.454963-19.214813-37.733437-218.871702-111.454963 19.214813Z"  horiz-adv-x="1371" />

    
    <glyph glyph-name="weibo" unicode="&#58924;" d="M668.224 736.576c-28.896-12.64-35.52-42.752-14.432-63.808 10.24-10.24 19.872-12.032 61.984-12.032 59.008 0 98.72-15.648 128.832-50.56 36.704-41.536 40.928-54.176 40.928-130.016 0-67.424 0-68.64 15.648-77.664 36.128-20.48 60.192 4.832 68.608 72.224 10.848 87.872-41.536 190.208-120.384 237.152-51.776 30.08-140.256 42.144-181.184 24.672l0 0 0 0zM372.064 624.608c-67.424-24.064-132.416-70.432-202.24-145.056-165.536-175.776-154.688-343.104 27.68-432.192 189.6-92.704 444.832-61.984 583.872 70.432 104.128 98.72 91.488 222.72-27.104 264.864-21.056 7.232-27.68 12.64-24.672 19.264 10.848 26.496 14.432 57.184 8.416 75.232-18.656 57.184-86.688 70.432-187.808 36.128l-40.32-13.856 3.616 40.32c4.224 47.552-6.016 73.44-34.304 87.872-23.488 12.032-68.608 10.848-107.136-3.008l0 0 0 0zM539.424 391.648c89.696-24.672 144.448-78.848 144.448-143.264 0-71.616-63.808-136.032-167.328-170.336-55.392-18.048-158.304-21.664-208.864-7.84-95.712 27.072-149.888 80.064-149.888 148.064 0 37.312 16.256 69.824 51.776 102.912 33.12 31.296 58.4 46.336 107.136 62.592 73.44 24.672 152.288 27.68 222.72 7.84l0 0zM349.792 333.28c-60.8-28.288-93.312-71.616-93.312-125.792 0-49.376 21.664-83.072 69.216-108.352 36.704-19.872 104.128-18.048 145.056 3.008 52.384 27.68 86.688 78.848 86.688 128.832-0.608 40.928-36.736 89.696-79.456 107.136-34.304 14.464-92.096 12.064-128.224-4.8l0 0 0 0zM393.728 220.096c4.224-4.224 7.232-14.464 7.232-23.488 0-30.112-50.56-54.784-71.04-34.304-11.424 11.424-8.416 39.744 4.832 52.96s47.552 16.256 59.008 4.832l0 0 0 0zM678.464 613.184c-27.68-27.68-9.024-60.8 34.912-60.8 37.92 0 54.784-19.264 54.784-62.592 0-27.104 2.4-34.912 13.248-42.144 32.512-22.88 59.008 2.4 59.008 55.968 0 65.6-46.944 114.976-113.76 119.776-30.08 2.4-37.312 0.608-48.16-10.24l0 0 0 0z"  horiz-adv-x="1024" />

    
    <glyph glyph-name="qq" unicode="&#58933;" d="M910.858 223.278c-18.835 109.494-97.937 181.226-97.937 181.226 11.302 99.415-30.13 117.046-30.13 117.046-8.718 307.585-273.041 302.201-278.595 302.054-5.551 0.148-269.911 5.531-278.593-302.053 0 0-41.435-17.63-30.135-117.046 0 0-79.096-71.733-97.93-181.226 0 0-10.059-185.007 90.396-22.655 0 0 22.605-61.656 64.032-117.046 0 0-74.084-25.183-67.797-90.61 0 0-2.522-72.982 158.198-67.962 0 0 112.995 8.798 146.896 56.63h29.87c33.901-47.832 146.893-56.63 146.893-56.63 160.687-5.020 158.199 67.962 158.199 67.962 6.254 65.427-67.798 90.61-67.798 90.61 41.432 55.39 64.032 117.046 64.032 117.046 100.42-162.352 90.401 22.654 90.401 22.654z"  horiz-adv-x="1024" />

    
    <glyph glyph-name="excel" unicode="&#58929;" d="M624.256 352l224 0 0-64-224 0 0 64ZM624.256 480l224 0 0-64-224 0 0 64ZM624.256 224l224 0 0-64-224 0 0 64ZM49.536 593.984l0-512 512.064 0 0 512L49.536 593.984zM375.232 192.064 305.6 296.192l-31.36-46.912 31.36 0 0-57.216-157.44 0 114.304 168.384L161.216 512 245.76 512l59.904-88.128L365.504 512l84.48 0L348.608 360.512l114.368-168.448L375.232 192.064zM926.144 693.824l-121.856 121.92C777.728 842.24 725.376 864 687.808 864L278.336 864c-37.568 0-68.224-30.72-68.224-68.224l0-137.728 54.592 0L264.704 795.776c0 7.424 6.336 13.632 13.696 13.632l409.472 0c4.032 0 8.704-0.512 13.632-1.472l0-216.896 216.96 0c0.96-4.928 1.472-31.872 1.472-36.032l0-582.72c0-7.424-6.336-13.632-13.696-13.632L278.336-41.344c-7.424 0-13.696 6.336-13.696 13.632l0 45.76L210.048 18.048l0-45.76c0-37.568 30.656-68.224 68.224-68.224l627.904 0c37.568 0 68.224 30.656 68.224 68.224L974.4 554.944C974.464 592.512 952.704 667.328 926.144 693.824zM756.032 645.568 756.032 785.024c3.712-2.56 6.912-5.248 9.536-7.936l121.856-121.856c2.688-2.688 5.376-5.952 8-9.664L756.032 645.568z"  horiz-adv-x="1024" />

    
    <glyph glyph-name="email" unicode="&#58950;" d="M512.012041 265.464534l415.548448 346.226152c-2.25174 0.409407-4.274694 1.348636-6.610724 1.348636L103.074318 613.039323c-2.287865 0-4.32286-0.927187-6.5746-1.348636L512.012041 265.464534zM958.133584 575.855503c0 3.901411-1.071684 7.513829-2.25174 11.06604L661.313264 341.397554l295.014111-295.074318c0.758608 2.974224 1.806209 5.840075 1.806209 9.055127L958.133584 575.855503zM68.15428 586.957667c-1.143932-3.576294-2.287865-7.140546-2.287865-11.102164l0-520.465099c0-3.251176 1.119849-6.104986 1.854374-9.07921l295.110442 295.098401L68.15428 586.957667zM632.582502 317.507432l-108.697648-90.539229c-3.407714-2.901976-7.622201-4.298777-11.872813-4.298777-4.214487 0-8.453057 1.396802-11.896896 4.298777l-108.601317 90.491063L94.079398 20.036877c2.926058-0.770649 5.828034-1.842333 8.99492-1.842333l817.887488 0c3.227093 0 6.129069 1.059643 9.115334 1.842333L632.582502 317.507432z"  horiz-adv-x="1024" />

    
    <glyph glyph-name="gengxin" unicode="&#58931;" d="M722.141012 582.362885C380.672 876.587247 26.151254 526.897572 26.151254 526.897572 408.283308 1180.665933 864.54272 700.304299 864.54272 700.304299L996.908372 825.370897 996.908372 384.606331 557.948588 384.606331 722.141012 582.362885 722.141012 582.362885ZM302.41024 185.607775C643.86304-108.518536 998.4 241.073085 998.4 241.073085 616.251732-412.695276 160.008534 67.74807 160.008534 67.74807L25.6-57.367555 25.6 343.979707 466.602668 343.979707 302.41024 185.607775 302.41024 185.607775Z"  horiz-adv-x="1024" />

    
    <glyph glyph-name="qianbao-copy" unicode="&#58947;" d="M755.75-6h-487.5c-80.813 0-146.25 65.438-146.25 146.25v487.5c0 80.813 65.438 146.25 146.25 146.25h292.5c63.563 0 117.188-40.781 137.344-97.5h57.656c80.813 0 146.25-65.438 146.25-146.25v-390c0-80.813-65.438-146.25-146.25-146.25zM560.75 725.25h-292.5c-49.781 0-90.469-37.5-96.281-85.687 25.781 22.687 59.25 36.937 96.281 36.937h376.5c-16.875 29.063-48 48.75-84 48.75zM853.25 432.75c0 13.5-10.875 24.375-24.375 24.375h-243.75c-13.5 0-24.375-10.875-24.375-24.375v-146.25c0-13.5 10.875-24.375 24.375-24.375h243.75c13.5 0 24.375 10.875 24.375 24.375v146.25zM853.25 213.375h-292.5c-26.906 0-48.75 21.844-48.75 48.75v195c0 26.906 21.844 48.75 48.75 48.75h292.5v24.375c0 53.813-43.688 97.5-97.5 97.5h-487.5c-53.813 0-97.5-43.688-97.5-97.5v-390c0-53.813 43.688-97.5 97.5-97.5h487.5c53.813 0 97.5 43.688 97.5 97.5v73.125zM609.5 384h48.75v-48.75h-48.75v48.75z"  horiz-adv-x="1024" />

    
    <glyph glyph-name="rocket2" unicode="&#58952;" d="M691.192 435.195c-70.547 0-127.987 57.441-127.987 127.987s57.441 127.987 127.987 127.987 127.987-57.441 127.987-127.987-57.441-127.987-127.987-127.987zM691.192 639.974c-42.338 0-76.792-34.454-76.792-76.792s34.454-76.792 76.792-76.792 76.792 34.454 76.792 76.792-34.454 76.792-76.792 76.792zM25.659-127.95c-6.655 0-13.208 2.611-18.123 7.474-7.014 7.014-9.369 17.509-5.939 26.826 78.789 216.606 161.622 326.47 246.145 326.47 27.901 0 53.959-11.98 77.56-35.529 37.27-37.27 38.601-74.386 33.174-98.96-17.099-77.202-126.144-152.817-324.064-224.797-2.867-1.024-5.836-1.536-8.754-1.536zM247.793 181.678c-25.341 0-55.188-22.219-86.263-64.25-30.563-41.314-61.28-100.188-91.536-175.445 68.345 27.492 123.277 55.393 163.772 83.192 54.625 37.526 70.803 66.553 74.745 84.267s-2.406 34.659-19.403 51.656c-13.823 13.823-27.338 20.529-41.366 20.529zM998.361 895.949c-132.851 0-251.213-22.526-351.914-66.963-82.987-36.656-154.045-88.055-211.23-152.868-10.649-12.082-20.529-24.318-29.693-36.604-44.13-2.918-89.284-20.478-134.335-52.219-38.14-26.826-76.434-63.994-113.909-110.427-62.97-78.021-101.673-154.967-103.311-158.192-5.58-11.212-2.253-24.83 7.884-32.15 4.505-3.276 9.778-4.864 15-4.864 6.553 0 13.106 2.509 18.072 7.423 0.256 0.256 24.727 24.318 66.451 47.918 34.403 19.454 87.441 42.338 151.588 46.383 16.229-41.519 62.663-91.178 84.932-113.448s71.929-68.703 113.448-84.932c-4.044-64.147-26.928-117.185-46.383-151.588-23.652-41.775-47.662-66.195-47.867-66.4-8.857-8.857-9.983-22.884-2.662-33.072 4.966-6.86 12.748-10.649 20.785-10.649 3.891 0 7.782 0.87 11.416 2.713 3.225 1.638 80.171 40.342 158.192 103.311 46.434 37.475 83.601 75.768 110.427 113.909 31.741 45.103 49.25 90.205 52.219 134.335 12.236 9.113 24.471 18.993 36.604 29.693 64.813 57.185 116.212 128.243 152.868 211.23 44.437 100.649 66.963 219.063 66.963 351.914v25.597h-25.597zM159.124 393.829c48.789 70.803 123.38 158.602 207.442 186.196-33.226-58.209-50.427-111.656-56.621-145.547-59.335-3.635-110.479-20.887-150.82-40.649zM521.891 31.267c19.761 40.342 37.014 91.434 40.597 150.718 33.84 6.195 87.338 23.396 145.496 56.57-27.645-83.908-115.393-158.499-186.145-207.288zM770.237 345.604c-106.485-93.943-216.759-115.188-232.63-115.188-0.102 0-10.597 0.205-38.857 20.12-19.71 13.874-42.697 33.635-64.608 55.546s-41.673 44.898-55.546 64.608c-19.915 28.26-20.12 38.755-20.12 38.857 0 15.87 21.246 126.144 115.188 232.63 112.424 127.373 284.49 197.049 498.843 202.22-5.171-214.353-74.796-386.419-202.22-498.843z"  horiz-adv-x="1024" />

    
    <glyph glyph-name="shang1" unicode="&#58943;" d="M904 204c0-8.189-3.124-16.379-9.372-22.628-12.497-12.496-32.759-12.496-45.256 0L512 518.745 174.628 181.372c-12.497-12.496-32.758-12.496-45.255 0-12.497 12.498-12.497 32.758 0 45.256l360 360c12.497 12.496 32.758 12.496 45.255 0l360-360C900.876 220.379 904 212.189 904 204z"  horiz-adv-x="1024" />

    
    <glyph glyph-name="xia" unicode="&#58944;" d="M904 564c0 8.189-3.124 16.379-9.372 22.628-12.497 12.496-32.759 12.496-45.256 0L512 249.255 174.628 586.628c-12.497 12.496-32.758 12.496-45.255 0-12.497-12.498-12.497-32.758 0-45.256l360-360c12.497-12.496 32.758-12.496 45.255 0l360 360C900.876 547.621 904 555.811 904 564z"  horiz-adv-x="1024" />

    
    <glyph glyph-name="jiajian-" unicode="&#58959;" d="M123.84 425.92h776.32a41.92 41.92 0 0 0 0-83.84H123.84a41.92 41.92 0 1 0 0 83.84zM470.08-4.16V772.16a41.92 41.92 0 0 0 83.84 0v-776.32a41.92 41.92 0 1 0-83.84 0z"  horiz-adv-x="1024" />

    
    <glyph glyph-name="bangzhu1" unicode="&#58922;" d="M921.482 591.476c-23.478 55.51-57.086 105.359-99.889 148.162-42.802 42.802-92.654 76.409-148.165 99.886-57.484 24.313-118.537 36.639-181.463 36.639-62.926 0-123.98-12.326-181.463-36.639-55.514-23.477-105.364-57.085-148.166-99.886-42.803-42.802-76.411-92.651-99.889-148.162-24.31-57.482-36.638-118.531-36.638-181.453 0-62.923 12.327-123.971 36.638-181.454 23.478-55.511 57.086-105.361 99.889-148.164 42.803-42.803 92.655-76.411 148.166-99.89 57.485-24.313 118.537-36.64 181.463-36.64 62.926 0 123.98 12.326 181.463 36.64 55.513 23.478 105.363 57.087 148.167 99.89 42.802 42.803 76.41 92.653 99.888 148.164 24.313 57.482 36.638 118.531 36.638 181.454 0.001 62.922-12.326 123.971-36.638 181.453zM491.964-15.919c-234.871 0-425.952 191.077-425.952 425.942 0 234.862 191.082 425.934 425.952 425.934s425.951-191.074 425.951-425.934c0.001-234.866-191.079-425.942-425.951-425.942zM525.073 235.859h-73.754c-3.172 0-5.744-2.571-5.744-5.744v-73.351c0-3.173 2.572-5.744 5.744-5.744h73.754c3.173 0 5.744 2.571 5.744 5.744v73.351c0 3.173-2.57 5.744-5.744 5.744zM614.951 655.636c-32.031 27.781-74.476 41.869-126.157 41.869-48.796 0-89.711-14.3-121.612-42.502-31.963-28.258-50.246-66.963-54.343-115.041-0.137-1.602 0.405-3.188 1.492-4.372 1.088-1.184 2.622-1.858 4.23-1.858h69.766c2.837 0 5.25 2.071 5.679 4.877 9.691 63.514 40.957 94.388 95.585 94.388 27.794 0 50.449-8.431 67.331-25.057 17.089-16.843 25.397-37.804 25.397-64.080 0-13.073-3.131-25.653-9.305-37.389-6.274-11.916-23.116-29.515-50.058-52.309-28.124-23.795-47.723-46.679-58.252-68.019-10.727-21.729-15.941-54.509-15.941-100.214 0-3.172 2.572-5.743 5.744-5.743h62.989c3.172 0 5.744 2.571 5.744 5.743 0 32.763 3.178 56.301 9.445 69.964 6.24 13.613 23.955 32.51 52.653 56.164 29.954 24.691 50.689 47.749 61.628 68.531 11.021 20.941 16.608 43.837 16.608 68.055 0 43.004-16.358 79.002-48.624 106.993z"  horiz-adv-x="1000" />

    
    <glyph glyph-name="wangluo" unicode="&#58946;" d="M909.989 552.719c-21.76 51.446-52.904 97.643-92.568 137.307-39.663 39.664-85.86 70.808-137.306 92.568-53.28 22.536-109.858 33.962-168.164 33.962S397.067 805.13 343.787 782.594c-51.446-21.76-97.643-52.904-137.307-92.568-39.664-39.664-70.808-85.86-92.568-137.307-22.536-53.28-33.962-109.858-33.962-168.164s11.426-114.884 33.962-168.164c21.76-51.445 52.904-97.643 92.568-137.306 39.664-39.664 85.86-70.809 137.307-92.568 53.28-22.535 109.858-33.962 168.164-33.962s114.884 11.427 168.164 33.962c51.445 21.76 97.643 52.904 137.306 92.568 39.664 39.663 70.809 85.86 92.568 137.306 22.535 53.28 33.962 109.858 33.962 168.164s-11.427 114.884-33.962 168.164zM543.951 519.97c17.57 0.243 35.095 0.683 52.536 1.368a1990.762 1990.762 0 0 1 91.131 5.678c10.157-34.378 16.643-71.314 19.389-110.46H543.951V519.97z m0 64.069V732.59c17.617-12.176 39.372-29.845 61.074-54.197 23.42-26.28 43.109-56.138 58.784-89.019-41.937-3.147-82.117-4.783-119.858-5.335z m-64 144.763v-144.705a2038.572 2038.572 0 0 0-103.41 4.309 1929.6 1929.6 0 0 0-11.183 0.786c15.195 31.915 34.175 60.991 56.676 86.711 20.284 23.185 40.722 40.49 57.917 52.899zM370.842 524.646a2124.301 2124.301 0 0 1 109.109-4.606v-103.484H322.25c2.742 39.079 9.208 75.96 19.335 110.285 9.453-0.776 19.21-1.512 29.257-2.195z m-112.731-108.09H145.342c3.916 45.757 16.208 89.778 36.139 130.276 20.257-3.578 52.836-8.759 95.407-13.641-9.902-36.699-16.182-75.682-18.777-116.635z m-0.859-64c1.975-39.144 9.712-78.242 23.101-116.799-44.093-4.976-77.797-10.319-98.621-13.992-20.08 40.64-32.458 84.841-36.39 130.792h111.91z m64.098 0h158.601v-104.048c-36.37-0.602-72.818-2.13-109.109-4.601-8.41-0.573-16.612-1.182-24.609-1.821-14.322 36.523-22.659 73.543-24.883 110.47z m158.601-168.103v-131.712c-16.974 15.877-36.574 35.962-56.038 59.735-18.064 22.064-33.892 44.698-47.379 67.668a2038.38 2038.38 0 0 0 103.417 4.309z m64-136.665V184.513c34.387-0.503 70.782-1.903 108.68-4.527-13.467-22.915-29.263-45.496-47.286-67.509-21.547-26.32-43.262-48.119-61.394-64.689z m52.536 199.426a2063.187 2063.187 0 0 1-52.536 1.384V352.556h163.958c-2.227-36.975-10.582-74.045-24.939-110.615a1994.972 1994.972 0 0 1-86.483 5.273z m175.521 105.342H878.56c-3.928-45.898-16.283-90.051-36.322-130.652a1822.84 1822.84 0 0 1-93.476 13.439c13.478 38.691 21.264 77.929 23.246 117.213z m-0.859 64c-2.605 41.111-8.924 80.238-18.891 117.061a1821.491 1821.491 0 0 1 90.233 13.075c19.89-40.46 32.158-84.432 36.07-130.136H771.149z m1.017 228.215a373.188 373.188 0 0 0 34.046-39.155 1772.853 1772.853 0 0 0-75.117-9.98c-19.529 46.785-45.825 88.91-78.291 125.338a423.863 423.863 0 0 1-5.386 5.927c46.185-18.263 88.573-45.955 124.748-82.13zM384.81 730.077a420.788 420.788 0 0 1-8.355-9.102c-32.552-36.525-58.904-78.775-78.449-125.71-32.357 3.484-59.48 7.244-80.226 10.469a373.386 373.386 0 0 0 33.956 39.037c38.338 38.338 83.654 67.152 133.074 85.306zM251.736 124.341a373.444 373.444 0 0 0-33.584 38.548c22.526 3.498 52.529 7.614 88.626 11.328 18.229-35.542 41.31-70.356 68.867-103.808a678.068 678.068 0 0 1 35.727-39.995c-59.757 16.875-114.524 48.814-159.636 93.927z m368.249-91.745a677.032 677.032 0 0 1 33.629 37.814c27.469 33.344 50.487 68.043 68.689 103.466a1780.315 1780.315 0 0 0 83.528-10.88 373.34 373.34 0 0 0-33.665-38.654c-43.23-43.232-95.324-74.373-152.181-91.746z"  horiz-adv-x="1024" />

    
    <glyph glyph-name="jiantou" unicode="&#58927;" d="M549.39-128v624.578h261.46l-325.918 353.248-325.963-353.248h261.417v-624.578h129.005z"  horiz-adv-x="1025" />

    
    <glyph glyph-name="PAY_WALLET" unicode="&#58948;" d="M589.019 214.566c-34.027 0-61.616 27.558-61.616 61.6v61.614c0 33.997 27.589 61.616 61.616 61.616h369.69v-184.832l-369.69 0zM635.23 350.597c-25.513 0-46.21-20.67-46.21-46.213 0-25.511 20.698-46.21 46.21-46.21s46.213 20.7 46.213 46.21c0 25.543-20.7 46.213-46.213 46.213zM496.596 337.78v-61.614c0-51.071 41.398-92.408 92.423-92.408h308.076v-123.231c0-51.085-41.368-92.423-92.423-92.423l-646.958 0c-51.025 0-92.423 41.337-92.423 92.423v585.328c0 51.025 41.398 92.423 92.423 92.423h296.733l-72.355-30.175h-239.781c-25.513 0-46.183-20.698-46.183-46.21 0-25.543 20.67-46.213 46.183-46.213h754.785v-185.476l-308.077-0c-51.025 0-92.423-41.368-92.423-92.424zM188.521 553.435h-61.614v-61.616h30.807v30.809h30.807v30.808zM188.521 461.011h-61.614v-61.614h32.13l-1.323 30.807 30.807-0.692v31.499zM188.521 368.588h-61.614v-61.614h31.469l-0.661 30.807h30.807l0 30.808zM188.521 276.166h-61.614v-61.6h31.469l-0.661 30.807 30.807-0.661 0 31.454zM188.521 183.758h-61.614v-61.616h30.807v30.747h30.807v30.869zM188.521 91.335h-61.614v-61.614h31.469l-0.661 30.085h30.807l0 31.529zM311.781 647.753l361.988 152.142 69.317-152.142-431.305 0zM732.166 738.279h72.505c26.988 0 51.025-11.764 67.934-30.175h-125.757l-14.682 30.175z"  horiz-adv-x="1024" />

    
    <glyph glyph-name="huoyan" unicode="&#59899;" d="M344.6208-64s-473.8688 108.8128-96.0064 652.8128c0 0-19.1872-76.8128 12.8128-192 0 0 275.36 192 160.0704 435.1872 0 0 204.8896-38.4064 313.6128-358.4064 0 0 44.8768 44.8128-12.7168 198.4064 0 0 243.328-166.4064 192.1344-435.1872C869.7152 0 632.9216-64 632.9216-64s179.2576 256-102.5984 524.8128c0 0 44.7808-76.8128-76.8192-236.8128 0 0 12.8128 96-25.5936 128 0 0 25.5936-57.5936-96.064-179.1872C235.7696 83.1872 344.6208-64 344.6208-64z"  horiz-adv-x="1024" />

    
    <glyph glyph-name="open-blank" unicode="&#58953;" d="M810.667 85.333h-597.333v597.333h298.667v85.333h-298.667c-47.147 0-85.333-38.187-85.333-85.333v-597.333c0-47.147 38.187-85.333 85.333-85.333h597.333c47.147 0 85.333 38.187 85.333 85.333v298.667h-85.333v-298.667zM597.333 768v-85.333h152.96l-419.413-419.413 60.373-60.373 419.413 419.413v-152.96h85.333v298.667h-298.667z"  horiz-adv-x="1024" />

    
    <glyph glyph-name="jilu1" unicode="&#58920;" d="M756.869565 116.869565a89.043478 89.043478 0 0 1-89.043478-89.043478v-111.304348H222.608696a89.043478 89.043478 0 0 0-89.043479 89.043478V762.434783a89.043478 89.043478 0 0 0 89.043479 89.043478h578.782608a89.043478 89.043478 0 0 0 89.043479-89.043478v-645.565218h-133.565218z m0 556.521739a22.26087 22.26087 0 0 1-22.260869 22.26087H289.391304a22.26087 22.26087 0 0 1-22.260869-22.26087v-22.260869a22.26087 22.26087 0 0 1 22.260869-22.26087h445.217392a22.26087 22.26087 0 0 1 22.260869 22.26087v22.260869z m0-200.347826a22.26087 22.26087 0 0 1-22.260869 22.26087H289.391304a22.26087 22.26087 0 0 1-22.260869-22.26087v-22.260869a22.26087 22.26087 0 0 1 22.260869-22.26087h445.217392a22.26087 22.26087 0 0 1 22.260869 22.26087v22.260869z m0-200.347826a22.26087 22.26087 0 0 1-22.260869 22.26087H289.391304a22.26087 22.26087 0 0 1-22.260869-22.26087v-22.260869a22.26087 22.26087 0 0 1 22.260869-22.26087h445.217392a22.26087 22.26087 0 0 1 22.260869 22.26087v22.260869z m0-200.347826h105.650087L712.347826-81.029565V27.826087a44.521739 44.521739 0 0 0 44.521739 44.521739z"  horiz-adv-x="1024" />

    
    <glyph glyph-name="jinggao" unicode="&#58923;" d="M511.513 831.62C265.097 831.62 65.39 631.886 65.39 385.505c0-246.385 199.706-446.126 446.122-446.126 246.349 0 446.122 199.742 446.122 446.126 0 246.38-199.773 446.117-446.122 446.117z m-1.338-764.158c-35.631 0-64.451 28.824-64.451 64.452 0 35.595 28.819 64.452 64.451 64.452 35.627 0 64.452-28.857 64.452-64.452 0-35.628-28.825-64.452-64.452-64.452z m84.406 479.119c0-0.116-0.032-0.231-0.064-0.467l-0.057-0.204-0.089-0.462-0.027-0.173-0.057-0.347-0.063-0.288s-54.427-253.324-54.454-253.792c0 0 3.748 19.084 0-0.031-3.747-19.116-13.273-29.596-29.596-29.596-16.349 0-24.93 12.114-29.973 31.748s-53.004 246.06-53.036 246.265c0 0-0.027 0.089-0.057 0.204l-0.032 0.2c-0.032 0.147-0.084 0.293-0.084 0.44l-0.057 0.348-0.058 0.32c-0.026 0.084-0.057 0.32-0.057 0.32l-0.057 0.347-0.058 0.148-0.089 0.493s-0.031 0.2-0.057 0.288l-0.057 0.32s-0.032 0.232-0.09 0.462c0 0 0 0.09-0.026 0.178l-0.032 0.231s-0.084 0.289-0.115 0.436l-0.058 0.347-0.057 0.326-0.057 0.288-0.057 0.347-0.032 0.173-0.09 0.462-0.057 0.325s-0.052 0.231-0.052 0.347a86.834 86.834 0 0 0-1.8 17.483c0 47.635 38.535 86.206 86.202 86.206 47.661 0 86.206-38.571 86.206-86.206a87.123 87.123 0 0 0-1.806-17.486z"  horiz-adv-x="1024" />

    
    <glyph glyph-name="shuaxin2" unicode="&#59153;" d="M885.515 764.006l-89.691-94.411C721.475 746.304 618.803 792.33 505.509 792.33 280.102 792.329 96 608.227 96 384c0-225.407 184.102-408.329 409.509-408.329 169.94 0 350.502 93.231 389.447 283.234 3.54 17.702-10.621 27.143-24.783 27.143h-83.79c-17.702 0-33.044-16.522-34.224-28.323 0-2.36 0-3.54-1.18-3.54-37.765-110.933-123.915-138.077-245.47-138.077-147.518 0-267.892 120.375-267.892 267.892s120.374 266.712 267.892 266.712c74.349 0 140.437-30.684 191.183-80.25L579.858 454.809c-1.18 0-1.18-1.18-2.36-1.18-23.603-25.963-14.162-43.665 12.982-43.665h295.035c25.963 0 42.485 17.702 42.485 43.665V753.385c-1.18 22.422-16.522 30.683-42.485 10.621z"  horiz-adv-x="1024" />

    
    </font>
</defs>
</svg>
